<svg width="1921" height="600" viewBox="0 0 1921 600" fill="none" xmlns="http://www.w3.org/2000/svg">
<rect width="1920" height="600" fill="#003B71"/>
<path d="M1813.75 404.724C1813.75 404.43 1813.75 404.137 1813.46 403.843C1814.04 403.843 1814.63 403.843 1814.93 403.843C1815.22 402.374 1814.93 401.786 1813.75 401.199C1814.04 401.199 1814.34 401.199 1814.93 401.199C1816.1 401.199 1817.28 401.199 1818.16 401.199C1819.92 400.611 1822.27 400.024 1823.74 398.555H1824.33C1824.92 398.555 1825.21 399.142 1825.8 399.436C1826.97 400.318 1826.97 400.318 1828.15 400.611C1828.15 399.142 1828.74 397.674 1829.03 396.499C1829.62 396.205 1830.79 397.086 1830.5 395.617C1830.5 395.617 1830.79 395.617 1831.09 395.617C1831.09 395.323 1831.09 395.03 1831.09 394.442C1831.38 394.442 1831.67 394.442 1831.97 394.442C1831.97 394.442 1831.97 393.855 1831.97 393.561H1832.56C1832.85 392.68 1833.44 392.092 1833.73 391.211C1833.73 390.917 1833.73 390.329 1833.73 390.036H1834.61C1834.61 389.154 1834.02 388.567 1834.02 387.979C1834.61 387.392 1835.2 387.098 1835.49 386.217C1835.49 385.923 1835.49 385.042 1835.2 384.748C1834.61 384.16 1834.61 383.573 1834.32 382.985C1834.02 382.104 1833.73 380.929 1833.44 380.047V379.46C1834.02 378.872 1834.32 377.991 1834.32 377.11C1835.2 376.229 1834.91 375.347 1834.02 374.466C1834.02 373.878 1835.49 373.878 1834.91 372.997C1835.79 372.703 1836.67 372.116 1836.67 370.647C1836.67 370.647 1836.67 370.353 1836.67 370.059C1837.26 369.472 1837.55 368.884 1837.26 368.003V367.415C1837.84 366.828 1838.43 366.24 1838.43 365.359C1838.43 364.772 1838.73 364.478 1839.02 363.89C1838.43 363.89 1837.84 363.89 1837.26 363.89C1837.26 362.715 1837.26 362.715 1838.73 362.715C1839.61 362.715 1840.2 362.715 1840.78 361.54C1840.78 361.54 1840.78 361.54 1841.08 361.246C1841.37 360.953 1841.66 360.659 1841.08 360.365C1840.49 360.071 1840.49 359.777 1841.08 359.484C1841.08 359.484 1841.08 359.484 1841.37 359.19C1841.66 358.896 1841.96 358.602 1842.55 358.015C1842.55 357.721 1842.25 357.427 1841.96 357.134C1842.55 356.546 1843.13 355.958 1843.43 355.371V354.49C1843.13 354.196 1843.43 353.608 1843.43 353.315C1843.72 351.846 1842.84 350.377 1841.37 349.789C1838.43 348.614 1835.79 349.202 1833.44 350.964C1831.67 352.433 1829.62 353.902 1827.85 355.371C1827.56 355.371 1827.27 355.665 1826.68 355.958C1825.21 356.546 1823.74 357.134 1822.27 357.721C1821.68 357.721 1821.1 358.015 1820.22 358.309C1818.16 358.602 1815.81 358.896 1813.75 359.19C1811.69 359.484 1809.34 359.777 1807.29 360.071C1804.05 360.659 1801.41 360.071 1798.47 358.602C1797.3 358.015 1796.12 357.721 1795.24 356.84C1795.24 356.84 1794.95 356.252 1794.65 355.958C1794.06 354.49 1793.48 353.021 1792.89 351.552C1792.89 350.964 1792.3 350.377 1792.3 350.083C1792.01 349.202 1791.71 348.027 1791.42 347.145C1791.42 346.264 1791.42 345.383 1790.83 344.501C1789.95 342.445 1789.07 340.682 1788.48 338.626C1787.89 337.157 1786.72 336.276 1786.13 335.101C1784.66 333.045 1782.61 331.869 1780.55 330.107C1779.96 329.519 1778.79 329.519 1777.61 329.226C1777.9 329.226 1778.49 328.638 1778.79 328.344C1779.37 328.344 1779.67 327.757 1779.67 327.169C1779.67 325.407 1778.49 323.938 1777.61 322.469H1777.32C1776.73 323.35 1776.14 322.469 1775.26 322.469V323.056C1775.26 323.056 1775.26 323.056 1774.97 323.056C1774.97 322.469 1774.67 321.881 1774.38 321C1773.5 321.881 1773.5 323.056 1773.79 324.525C1772.62 323.938 1772.62 323.056 1772.03 322.175C1771.15 323.056 1771.15 324.231 1771.44 325.7C1770.85 325.407 1770.56 325.113 1770.27 324.819C1769.68 325.7 1769.68 326.875 1769.97 327.757C1769.97 328.344 1769.97 328.932 1769.38 329.226C1768.5 329.519 1768.5 330.401 1768.5 331.282C1768.5 332.163 1768.5 333.045 1767.91 333.632C1767.91 334.22 1767.33 334.513 1766.74 334.807C1765.86 335.395 1765.27 336.864 1765.86 338.039C1767.03 338.039 1768.5 337.745 1769.68 337.451C1768.5 339.507 1769.38 340.976 1770.56 342.739C1771.15 343.326 1771.44 344.208 1772.03 344.795C1772.91 345.383 1773.5 345.383 1774.09 344.501C1774.09 344.501 1774.38 344.501 1774.67 344.795C1774.67 345.089 1774.38 345.383 1774.09 345.677C1774.67 345.97 1774.67 347.145 1774.38 347.733C1774.38 348.32 1774.09 349.202 1773.79 349.789C1773.5 351.258 1773.2 352.727 1772.91 354.196C1772.91 355.077 1772.91 355.665 1772.62 356.546C1772.03 357.721 1771.44 358.602 1771.15 359.777C1770.56 362.128 1769.68 364.772 1769.97 367.415C1769.97 369.472 1769.97 371.234 1769.97 373.291C1769.97 373.585 1769.97 374.172 1769.97 374.466C1770.56 377.697 1771.15 380.929 1772.91 383.866C1772.91 384.16 1773.2 384.748 1773.5 385.335C1774.38 386.804 1775.26 388.273 1776.44 389.448C1778.79 391.504 1781.72 392.68 1784.66 393.855C1786.13 394.442 1787.89 394.736 1789.36 395.03C1789.36 395.03 1789.36 395.03 1789.66 395.03C1790.83 395.617 1792.01 396.205 1793.18 396.499C1793.18 396.499 1793.77 396.499 1794.06 396.499C1794.65 396.499 1794.95 396.792 1795.24 397.086C1795.83 397.674 1796.12 398.261 1796.42 398.849C1796.71 399.436 1797.3 400.024 1797.88 400.024C1797.88 400.024 1797.88 400.024 1798.18 400.024C1799.06 400.905 1799.94 401.493 1800.82 402.374C1800.82 402.374 1800.82 402.961 1800.82 403.255C1800.24 405.312 1799.35 407.074 1798.77 409.131C1797.88 411.481 1796.71 412.068 1794.36 410.893C1793.48 410.599 1792.89 410.306 1792.01 409.718C1792.01 409.718 1791.71 409.718 1791.42 409.718C1792.01 411.775 1793.77 412.068 1795.24 412.95C1793.48 413.831 1791.42 414.125 1789.66 414.712C1788.48 414.712 1787.31 415.3 1786.13 415.594C1785.54 415.594 1785.25 416.181 1784.96 416.475C1786.43 416.475 1787.89 416.769 1789.36 416.181C1790.25 415.887 1791.13 416.181 1792.3 416.181C1793.18 416.181 1794.07 415.887 1794.95 415.594C1794.95 415.594 1795.24 415.594 1795.53 415.594C1796.12 415.594 1796.42 415.594 1796.71 415.887C1796.71 415.887 1796.71 416.769 1796.71 417.062C1796.71 417.062 1796.71 417.356 1796.42 417.65C1795.53 418.531 1795.53 419.706 1796.42 420.881C1796.71 420.588 1797 420 1797.3 419.706C1798.18 418.531 1798.77 417.062 1799.65 415.887C1800.24 415.006 1800.53 414.418 1800.82 413.243C1800.82 412.656 1801.41 412.362 1801.7 412.068C1802.29 411.481 1802.59 411.187 1801.7 410.599C1801.7 410.012 1802.29 409.424 1802.59 408.543C1803.17 407.074 1803.76 405.899 1804.35 404.43C1804.64 403.549 1806.41 402.961 1806.99 403.255C1807.87 403.843 1809.05 404.724 1809.93 405.605C1809.93 405.605 1809.93 406.193 1809.93 406.487C1809.34 408.837 1809.05 411.481 1808.46 413.831C1808.46 414.418 1807.87 415.3 1807.58 415.887C1807.58 415.887 1806.99 416.475 1806.7 416.181C1805.52 416.181 1804.35 416.181 1803.17 415.3C1802.59 415.006 1801.7 415.006 1800.82 414.712C1801.7 416.181 1802.59 417.062 1804.05 417.65C1804.35 417.65 1804.64 417.944 1804.94 418.237C1804.94 418.237 1804.35 418.531 1804.05 418.825C1803.47 419.119 1802.88 419.706 1802 419.706C1800.82 420.294 1799.65 420.588 1798.47 420.881C1797.59 421.175 1796.71 421.469 1795.83 422.056C1795.24 422.056 1794.95 422.938 1794.65 423.525C1796.12 422.938 1797.59 423.525 1798.77 422.35H1799.35C1801.12 422.35 1802.59 421.763 1804.05 420.881C1804.35 420.881 1804.64 420.881 1805.23 420.881C1806.11 420.881 1806.41 420.881 1806.11 422.056C1806.11 422.644 1806.11 422.938 1805.52 423.525C1804.94 424.7 1805.23 425.875 1805.52 427.05C1805.52 426.463 1806.11 426.169 1806.41 425.582C1806.99 424.113 1807.58 422.35 1808.46 420.881C1809.05 420 1809.34 419.119 1809.34 417.944C1809.34 417.356 1809.93 416.769 1810.23 416.475C1810.81 415.594 1810.81 415.3 1810.23 414.712C1810.23 414.125 1810.52 413.537 1810.81 412.656C1811.4 410.893 1811.69 408.837 1812.28 407.074C1812.28 406.78 1812.28 406.487 1812.87 406.193C1813.16 406.193 1813.46 405.605 1813.75 405.312V404.724Z" fill="#002E58"/>
<path d="M1665.08 548.083C1664.49 545.733 1663.02 544.264 1660.67 543.677C1656.56 542.502 1655.09 539.858 1654.5 536.039C1653.32 526.638 1650.97 517.531 1646.57 509.012C1644.51 504.899 1645.39 500.493 1649.5 497.849C1650.09 497.261 1650.97 496.967 1651.56 496.38C1657.44 490.798 1663.31 485.51 1669.19 479.635C1672.13 476.697 1672.13 476.404 1669.78 473.172C1665.08 466.416 1663.61 458.778 1663.9 450.846C1663.9 447.027 1665.66 443.208 1664.2 439.095C1663.31 436.745 1663.31 433.807 1663.02 431.163C1662.73 424.407 1664.49 417.356 1662.43 410.599C1661.26 406.781 1660.67 403.255 1658.32 400.318C1656.26 401.493 1654.5 403.255 1652.44 403.549C1650.39 403.843 1649.21 404.724 1648.04 406.193C1647.45 407.074 1646.57 407.662 1645.68 408.543C1642.45 412.362 1639.22 415.887 1638.05 421.175C1637.46 424.7 1635.4 427.932 1631.29 429.107C1622.77 431.457 1615.71 426.463 1616.01 418.237C1616.01 416.181 1617.18 414.125 1617.48 412.068C1618.36 405.312 1619.24 398.849 1620.12 392.092C1620.42 388.861 1620.71 385.335 1621.3 382.104C1621.3 379.754 1621.89 377.11 1622.47 374.76C1622.77 372.997 1623.94 371.528 1624.53 370.059C1626 367.122 1625.12 363.009 1622.47 360.659C1620.12 358.602 1618.95 355.959 1618.07 353.021C1619.83 353.315 1621 353.608 1622.47 353.902C1622.18 352.727 1621.89 351.552 1621.59 350.377C1621.59 350.377 1621.89 350.083 1622.18 349.789C1626 351.258 1630.11 352.727 1634.52 354.49C1642.75 350.083 1652.44 348.614 1662.14 350.377C1672.42 352.14 1681.24 356.546 1689.17 362.715C1702.69 372.997 1712.97 385.923 1721.78 399.73C1724.72 404.43 1728.54 408.249 1733.54 411.187C1742.94 416.475 1752.93 418.237 1763.8 417.356C1772.03 416.769 1779.96 416.181 1787.89 415.006C1794.06 414.125 1800.23 412.95 1806.11 410.893C1814.93 407.662 1823.74 407.368 1832.85 409.131C1844.31 411.481 1854.3 417.062 1863.11 424.407C1865.76 426.463 1868.11 426.463 1871.05 425.582C1872.52 425.288 1873.98 424.407 1875.45 423.819C1879.27 422.35 1882.8 422.056 1886.62 423.819C1892.5 425.875 1896.61 429.694 1899.84 434.689C1901.31 437.039 1903.37 439.389 1905.13 441.445C1907.19 444.089 1909.54 446.439 1911.3 449.377C1912.77 451.727 1913.65 454.371 1914.83 456.721C1914.83 456.721 1914.53 456.721 1914.24 456.721C1913.36 456.427 1912.77 456.134 1911.3 455.546C1913.06 459.071 1914.53 461.715 1915.71 464.653C1917.47 469.059 1917.76 471.997 1917.18 473.466C1916.59 472.291 1915.71 471.116 1915.12 469.941C1914.83 471.116 1914.83 472.291 1914.53 473.466C1913.36 482.573 1912.18 491.68 1911.01 500.493C1910.12 506.956 1909.54 513.712 1911.01 520.175C1911.89 524.288 1913.06 528.107 1918.35 529.87C1914.24 531.338 1911.59 529.576 1908.66 527.813C1909.54 529.87 1910.12 531.926 1911.3 533.689C1912.47 535.451 1913.94 537.214 1915.71 538.976C1917.18 540.445 1918.94 541.62 1920.41 543.089C1912.77 540.445 1906.01 536.92 1901.02 530.163C1902.19 532.513 1903.37 534.864 1904.84 537.214C1895.14 527.519 1886.03 516.944 1883.68 503.137C1883.68 505.193 1883.09 506.956 1882.8 509.306C1880.15 499.024 1881.62 489.329 1884.56 479.341C1882.51 481.104 1881.04 482.573 1879.57 484.042C1883.39 475.816 1885.74 468.766 1884.86 465.534C1883.39 467.003 1882.21 468.178 1881.04 469.647C1884.86 460.834 1885.44 452.021 1881.04 442.62C1880.45 444.97 1880.15 446.439 1879.57 448.202C1878.98 446.733 1878.98 444.97 1878.1 443.795C1875.75 440.858 1873.4 438.508 1870.75 435.864C1870.46 435.57 1868.99 435.864 1868.11 435.864C1867.81 435.864 1867.23 437.039 1867.52 437.626C1869.87 447.614 1868.7 457.602 1865.17 467.297C1863.99 470.822 1862.23 474.054 1861.06 477.579C1857.24 489.917 1865.17 503.724 1874.28 510.187C1876.63 511.95 1878.98 514.006 1879.27 516.944C1879.27 519.588 1879.27 522.525 1879.27 525.169C1879.27 533.689 1880.45 541.914 1882.21 550.433C1883.39 556.309 1885.15 561.89 1886.91 567.472C1887.5 569.822 1887.79 572.172 1885.74 574.229C1882.51 577.166 1882.21 580.398 1884.27 583.923C1885.15 585.686 1884.27 586.861 1883.68 588.33C1882.8 589.798 1882.8 591.855 1882.21 593.617C1882.21 594.499 1881.92 595.674 1881.33 595.967C1876.63 599.493 1866.93 599.199 1862.23 595.674C1861.64 595.086 1861.06 593.617 1861.35 593.03C1862.23 590.68 1863.7 588.623 1864.88 586.273C1865.17 585.686 1865.76 584.804 1865.46 584.217C1865.17 582.16 1866.05 580.985 1867.81 580.104C1871.93 577.46 1873.4 573.935 1873.1 569.528C1872.81 564.534 1872.52 559.54 1871.63 554.84C1869.87 542.795 1865.46 531.632 1857.53 521.938C1856.65 521.057 1855.77 520.175 1854.59 519.588C1846.95 516.062 1840.19 511.362 1835.49 504.605C1835.2 504.018 1834.61 503.724 1834.02 503.43C1829.62 501.374 1824.92 499.024 1820.21 496.967C1820.21 497.849 1820.21 498.73 1820.21 499.611C1821.39 502.549 1822.27 505.781 1823.74 508.718C1825.5 512.243 1826.97 515.769 1826.39 519.588C1825.5 524.582 1821.98 527.519 1817.86 529.87C1809.93 534.864 1802.29 540.151 1796.12 546.908C1794.95 548.083 1793.77 549.846 1793.77 551.608C1793.77 555.134 1792.3 557.19 1788.78 558.365C1786.72 558.953 1786.72 560.128 1787.89 561.89C1789.36 563.947 1790.83 566.003 1792.6 568.059C1792.01 568.941 1791.42 569.822 1790.83 570.703C1787.89 574.522 1784.37 578.048 1779.37 579.223C1774.38 580.398 1771.44 578.341 1771.73 573.641C1771.73 571.585 1772.62 569.528 1772.32 567.472C1771.44 564.534 1772.32 562.184 1773.2 559.834C1774.08 557.484 1775.26 555.134 1775.55 552.784C1775.55 549.846 1777.32 548.083 1779.37 546.027C1781.72 543.97 1784.37 541.914 1786.43 539.564C1792.6 533.395 1798.47 526.932 1804.64 520.763C1806.41 519 1807.58 517.238 1806.99 514.887C1806.41 512.831 1805.82 510.481 1804.64 508.718C1801.12 504.899 1797 501.374 1792.89 497.849C1792.01 496.967 1790.83 496.38 1790.25 495.499C1787.89 492.267 1785.54 488.742 1783.19 485.217C1763.51 496.38 1741.47 498.143 1718.55 496.38C1718.55 497.261 1718.55 497.849 1718.26 498.436C1717.96 503.43 1717.38 508.424 1717.38 513.419C1717.38 517.531 1716.5 521.35 1717.96 525.463C1718.85 528.107 1718.55 531.045 1717.96 533.689C1715.61 544.852 1715.91 561.89 1721.2 572.172C1722.96 575.697 1722.08 579.223 1718.55 581.279C1715.61 583.042 1715.61 583.629 1717.08 586.567C1717.67 587.448 1717.67 588.917 1717.08 590.092C1717.08 591.267 1716.2 592.442 1715.61 593.617C1715.03 595.086 1715.32 597.143 1714.15 597.73C1708.27 600.668 1699.45 601.255 1693.28 596.261C1695.34 592.149 1697.1 588.036 1699.16 584.217C1699.75 583.042 1701.51 582.16 1702.98 581.867C1705.04 581.279 1706.51 580.104 1705.62 578.048C1704.16 574.522 1705.62 571.878 1707.09 569.235C1707.68 568.059 1708.27 566.884 1708.27 565.709C1708.27 557.484 1706.21 543.97 1702.39 536.626C1700.92 533.689 1700.04 531.045 1700.63 527.813C1700.63 526.638 1701.22 525.463 1700.92 524.582C1699.16 519.881 1697.4 515.181 1695.63 510.481C1694.17 506.662 1692.11 502.549 1690.64 498.73C1690.05 496.967 1689.46 496.674 1687.7 497.261C1679.77 499.611 1671.83 501.962 1663.9 504.018C1658.91 505.487 1657.14 507.249 1658.03 512.243C1658.91 517.531 1660.67 522.819 1662.43 528.107C1662.43 528.694 1663.02 529.282 1663.61 529.576C1666.55 531.045 1667.72 533.101 1667.43 536.039C1667.43 537.508 1668.31 537.801 1669.48 537.214C1670.95 536.626 1672.72 536.332 1674.19 535.745C1675.65 535.157 1676.24 535.745 1676.83 536.626C1678.01 539.858 1679.18 542.795 1680.06 546.027C1680.65 548.671 1680.65 551.315 1681.24 554.252C1679.18 554.252 1677.71 554.252 1676.24 553.959C1673.6 553.371 1671.25 552.196 1668.6 551.608C1666.55 551.021 1665.08 550.14 1664.78 548.083H1665.08Z" fill="#002E58"/>
<path d="M349.654 507.249C349.654 505.78 350.535 504.018 351.123 502.549C351.123 501.962 352.004 501.668 352.592 501.374C355.824 500.786 356.999 498.436 357.587 495.792C358.174 494.324 357.587 492.267 357.587 490.505C357.881 488.154 358.468 485.51 359.35 483.16C359.937 481.104 361.113 479.635 360.525 477.285C360.525 476.697 360.819 475.522 361.406 474.935C363.169 473.76 363.757 472.291 362.876 470.234C362.876 469.941 362.876 469.353 362.876 469.059C366.108 468.472 369.633 468.178 372.572 467.003C374.628 466.415 376.098 464.947 377.86 463.478C378.448 463.184 378.448 461.715 377.86 460.834C377.86 460.246 376.391 460.246 375.804 460.246C374.628 460.246 373.453 460.246 372.278 460.834C369.34 462.303 366.108 461.715 363.169 461.715C362.876 461.715 362.288 461.715 362.288 461.715C361.406 459.659 359.056 458.778 358.762 456.134C358.468 451.727 357.587 447.027 354.942 443.208C353.473 441.151 351.416 439.683 349.36 438.214C348.478 437.626 347.009 438.214 345.834 438.214C349.36 442.033 351.416 446.145 352.004 451.14C352.004 452.608 352.004 453.783 352.004 455.252C350.535 455.252 349.36 455.252 348.478 455.252C347.009 455.252 345.834 454.371 344.952 452.902C341.427 447.321 337.313 442.326 330.555 440.858C327.029 440.27 323.797 440.858 320.859 442.326C318.802 443.502 317.921 445.264 318.508 447.321C322.034 443.502 326.148 443.208 330.555 446.439C333.493 448.496 335.844 451.433 337.607 454.959C338.194 456.134 337.901 456.721 336.725 457.896C334.375 459.953 332.612 459.659 330.261 457.896C328.498 456.721 326.442 456.134 324.385 455.546C322.034 454.959 321.447 455.84 321.74 458.484C322.034 461.421 324.091 462.89 326.148 464.065C328.205 465.24 330.555 466.122 333.2 467.297C331.73 468.178 330.849 469.059 329.674 469.647C323.797 471.997 317.921 472.585 311.751 471.703C310.575 471.703 309.106 471.703 307.931 472.291C306.168 473.172 304.405 473.466 302.642 472.878C300.291 472.291 298.235 471.41 296.178 470.822C293.827 469.941 291.771 469.941 289.42 470.822C284.425 473.466 279.43 475.522 274.729 478.46C269.734 481.398 264.151 482.573 258.275 482.573C248.873 482.573 239.47 481.985 230.656 479.048C228.011 478.166 225.073 478.166 222.135 479.048C216.846 480.81 211.263 482.279 205.681 484.042C204.505 482.279 203.036 480.223 201.567 478.166C198.041 473.172 192.753 471.116 187.17 470.234C186.582 470.234 185.995 470.234 185.407 470.528C185.407 470.528 185.407 471.116 185.407 471.41C184.819 471.41 184.232 471.41 183.644 471.41C183.644 471.997 183.644 472.585 183.35 473.172C182.763 473.172 182.175 473.172 181 473.172C184.819 479.341 191.871 479.929 195.397 484.923C195.397 484.923 194.516 484.923 193.634 484.923C193.634 484.923 193.634 484.923 193.634 485.217C194.809 485.51 196.279 485.804 197.454 486.392C197.454 486.392 197.454 486.392 197.454 486.686C196.279 486.686 195.103 486.979 193.928 487.273C195.985 488.154 198.041 488.742 200.098 489.623C197.748 494.03 198.041 498.436 198.335 502.843C198.629 507.543 198.923 512.243 196.278 517.237C197.454 516.65 198.041 516.356 199.217 516.062C198.629 518.413 198.335 520.175 198.041 522.525C198.629 522.525 199.217 522.525 199.804 522.232C201.861 527.226 199.804 531.632 198.923 536.332C198.629 538.683 197.748 540.739 197.454 543.089C196.866 547.202 194.809 549.258 191.284 549.552C191.284 551.902 190.99 554.252 191.284 556.602C192.459 562.478 188.933 567.178 188.639 572.466C188.639 574.522 187.758 576.579 187.464 578.635V579.223C189.521 581.573 187.464 585.098 189.227 587.448C189.814 588.036 189.227 589.505 189.227 590.386C189.227 593.324 189.227 593.911 192.165 594.499C194.809 595.086 197.748 595.38 200.98 594.499C200.098 591.267 199.217 588.036 198.335 584.804C197.748 583.042 197.16 581.573 198.041 579.516C198.041 578.929 198.041 578.341 198.041 577.754C197.16 572.172 198.629 566.884 200.98 561.89C200.98 561.89 200.98 561.89 200.98 561.597C203.33 556.309 205.387 551.021 209.5 546.908C211.557 544.852 212.733 541.62 214.495 538.683C215.083 540.739 214.202 543.97 212.439 546.027C210.088 548.671 208.031 551.315 206.268 554.252C205.681 554.84 205.681 556.309 205.975 557.19C205.975 558.365 206.268 559.246 206.856 560.421C209.207 565.709 209.794 571.291 209.207 576.873V577.754C212.145 579.223 210.676 583.042 212.439 585.098C212.732 585.686 213.026 586.273 213.614 586.861C216.258 589.211 217.14 592.148 216.846 595.38C216.846 595.967 217.434 596.849 217.728 596.849C220.96 597.143 224.192 597.436 227.424 597.436C228.011 597.436 228.599 597.436 229.48 596.849C228.305 594.499 227.424 592.148 226.248 590.386C224.485 587.742 222.135 585.392 222.722 581.573C222.722 580.692 222.135 579.81 221.841 579.223C219.784 574.522 218.315 569.822 218.903 564.828C219.49 559.834 219.784 554.546 223.898 551.021C224.485 550.433 225.073 549.846 225.661 549.552C228.599 548.083 230.656 546.027 232.125 543.089C232.712 541.62 233.594 541.62 235.063 541.914C242.996 543.97 250.636 546.027 258.863 545.733C264.445 545.733 270.028 544.264 275.023 541.914C276.786 541.033 279.136 541.033 280.899 540.445C282.075 540.445 282.662 540.445 282.662 542.208C282.662 544.852 282.368 547.496 282.662 549.846C282.662 551.608 283.544 553.665 283.837 555.427C285.307 563.065 283.837 570.41 282.368 577.46C281.781 579.516 281.487 581.573 283.544 583.042C284.425 583.629 284.719 585.686 285.013 586.861C285.307 589.211 285.6 591.855 285.894 594.205C285.894 594.792 286.776 595.967 287.363 595.967C290.008 596.555 292.652 596.555 295.296 596.849C296.766 596.849 297.059 596.261 296.472 594.792C295.296 591.561 293.827 588.623 292.946 585.392C291.477 580.104 292.064 574.816 294.121 569.822C294.709 568.647 294.709 567.472 295.003 566.297C295.003 566.297 295.59 566.297 295.884 566.297C295.884 570.997 296.472 575.991 296.472 580.692C296.472 581.573 296.472 582.16 296.472 583.042C296.472 584.804 296.472 585.979 298.529 586.861C299.704 587.448 300.291 588.917 300.879 590.092C301.467 591.267 301.761 592.736 302.348 594.205C302.936 595.674 303.817 597.436 304.699 598.024C307.343 598.905 310.281 598.905 312.926 599.199C312.926 599.199 313.807 598.024 313.513 597.73C312.632 595.38 311.457 592.736 309.988 590.973C306.462 585.979 305.58 580.398 305.874 574.522C305.874 570.41 305.874 566.297 305.874 562.478V561.89C308.812 557.19 306.462 551.608 307.931 546.614C308.518 544.264 308.812 541.62 310.869 539.858C311.75 539.27 312.044 538.095 312.338 537.214C314.395 532.513 316.158 527.813 317.921 523.113C319.39 518.706 322.034 515.181 325.266 511.95C329.38 507.543 333.493 503.43 337.313 499.024C338.488 497.555 339.664 496.086 340.839 494.911C342.014 496.086 343.19 497.555 344.365 499.024C344.365 501.374 343.777 504.312 344.071 507.249C344.071 510.187 345.246 512.831 345.834 515.769C347.597 513.125 347.891 510.187 348.184 506.956L349.654 507.249Z" fill="#002E58"/>
<path d="M22.3304 593.03C22.3304 586.861 20.8613 580.691 19.0983 574.816C17.923 570.997 17.923 567.472 19.0983 563.947C19.686 561.303 20.5674 558.659 21.1551 556.015C21.1551 555.427 21.1551 554.546 20.5674 553.959C13.8095 546.027 11.459 537.214 13.5157 527.226C13.5157 526.932 13.5157 526.344 13.5157 526.051C11.459 526.051 9.10841 526.051 7.05165 526.638C5.87636 526.638 4.99488 527.519 3.81959 528.107C3.52577 528.107 2.93813 528.694 2.35048 528.694C1.76284 528.694 1.1752 528.401 0.881373 528.107C1.1752 527.813 1.46903 527.226 1.76285 526.932C2.35049 526.638 3.23197 526.344 4.11343 526.051C1.76286 524.582 -0.000101708 522.819 -0.000101708 520.469C-0.000101708 518.706 -0.000110684 516.944 0.587533 515.475C1.17518 514.006 2.3505 512.831 4.11343 512.537C5.87636 512.537 7.6393 513.125 8.52076 514.887C10.2837 517.531 10.2837 520.469 9.1084 523.407C9.1084 523.407 9.10838 523.994 8.81456 524.288C8.81456 524.288 8.81456 524.288 8.81456 524.582C10.5775 524.582 14.1034 523.113 14.691 521.35C18.8045 511.656 26.4439 506.368 35.8462 502.843C42.8979 500.199 50.2434 498.73 57.8828 497.849C72.2801 496.38 86.6774 496.38 101.075 498.73C113.709 500.786 125.756 505.193 137.215 510.775C137.802 510.775 138.096 511.362 138.684 511.362C139.859 511.95 140.447 511.362 141.328 510.481C143.679 506.368 147.499 503.43 151.612 501.374C151.612 501.374 151.906 501.374 152.787 501.374C152.787 503.137 152.494 504.899 152.2 506.956C154.844 504.899 157.488 503.137 160.427 501.08C159.839 503.43 161.014 505.193 162.19 506.662C163.953 509.012 164.246 511.362 162.777 514.006C162.777 514.3 162.483 514.887 162.19 515.181C161.014 517.237 161.014 517.531 162.777 519.294C164.834 521.35 166.303 523.407 166.009 526.344C166.009 528.694 167.185 530.457 168.654 531.926C170.123 533.395 171.886 534.864 173.943 535.745C175.412 536.626 177.175 536.626 178.644 536.92C180.407 536.92 180.7 537.507 180.407 539.27C179.819 541.62 179.525 543.97 178.937 546.321C178.644 548.671 178.056 548.964 175.705 548.964C174.824 548.964 174.236 548.964 173.355 549.258C168.36 550.727 163.659 551.608 158.37 551.608C155.432 551.608 153.081 552.49 151.024 554.546C148.968 556.896 145.736 557.484 142.504 558.071C138.978 558.659 135.452 558.953 132.22 559.54C131.338 559.54 130.751 559.834 130.751 560.715C128.988 567.766 127.225 574.522 125.462 581.573C125.462 582.454 125.168 583.335 124.874 584.217C124.58 585.686 124.874 587.154 125.462 588.623C126.637 590.973 127.519 593.617 128.4 595.967C128.988 597.143 128.4 597.436 127.225 597.436C125.462 597.436 123.405 597.436 121.642 597.436C120.173 597.436 119.292 596.849 118.998 595.38C117.529 590.973 116.941 586.273 116.353 581.573C116.353 581.279 116.353 580.691 115.766 580.398C115.766 580.691 115.472 581.279 115.178 581.573C114.884 582.748 114.59 583.923 114.003 585.098C113.415 586.273 113.415 587.448 114.003 588.917C114.884 590.973 115.766 593.324 116.353 595.38C116.941 597.143 116.353 597.436 114.884 597.436C112.534 597.436 110.183 597.436 108.126 597.436C106.657 597.436 105.776 596.849 105.776 595.38C105.776 593.324 105.776 591.267 105.776 588.917C105.776 585.098 105.482 581.279 105.776 577.46C105.776 573.641 106.363 569.822 106.657 566.003C106.657 565.416 106.657 564.828 106.657 564.24C104.307 564.828 102.25 565.416 100.193 565.709C85.7959 569.235 71.1048 569.235 56.7075 565.709C53.1817 564.828 49.9496 564.24 46.4238 563.359C43.4856 562.772 42.3103 563.359 42.0165 566.591C42.0165 570.703 42.0165 574.816 42.0165 578.929C42.0165 583.629 44.367 587.742 46.7176 591.855C47.5991 593.324 48.1867 594.792 49.0682 596.261C49.6558 597.436 49.0682 598.024 47.8929 598.024C45.5423 598.024 42.8979 598.024 40.5473 598.024C38.1968 598.024 36.14 596.849 35.2585 594.499C33.7894 590.386 32.908 586.273 31.7327 582.16C31.4389 580.985 31.145 579.516 30.8512 578.341C30.8512 577.754 30.5574 577.46 30.2636 576.872C30.2636 576.872 29.9698 576.872 29.6759 576.872C29.6759 577.46 29.0883 578.048 29.0883 578.635C29.0883 581.573 29.0883 584.217 29.0883 587.154C29.0883 587.742 29.3821 588.329 29.6759 588.917C30.8512 590.973 32.0265 593.03 33.4956 595.086C34.3771 596.849 33.7894 597.73 31.7327 598.024C29.9697 598.024 28.2068 598.024 26.4439 598.024C22.918 598.024 20.5674 596.261 20.5674 592.442L22.3304 593.03ZM6.46397 514.887C4.99486 513.712 3.8196 514.006 3.23196 515.769C2.64431 517.825 2.93813 519.588 3.81959 521.35C4.40724 522.525 5.58254 523.994 7.05165 523.994C7.93312 523.994 8.81456 521.644 8.81456 521.056C8.81456 518.119 8.2269 516.65 6.46397 515.181V514.887Z" fill="#002E58"/>
</svg>
