<svg width="205" height="168" viewBox="0 0 205 168" fill="none" xmlns="http://www.w3.org/2000/svg">
<path d="M171.274 133.107C171.668 131.531 172.653 130.545 174.23 130.151C176.989 129.363 177.975 127.59 178.369 125.028C179.157 118.722 180.734 112.613 183.691 106.899C185.07 104.14 184.479 101.184 181.72 99.4104C181.325 99.0163 180.734 98.8193 180.34 98.4251C176.398 94.6811 172.456 91.134 168.514 87.1929C166.544 85.2223 166.544 85.0253 168.12 82.8576C171.274 78.3253 172.259 73.2018 172.062 67.8813C172.062 65.3195 170.88 62.7578 171.865 59.999C172.456 58.4225 172.456 56.452 172.653 54.6785C172.85 50.1461 171.668 45.4168 173.048 40.8845C173.836 38.3227 174.23 35.958 175.807 33.9875C177.187 34.7757 178.369 35.958 179.749 36.1551C181.128 36.3522 181.917 36.9433 182.705 37.9286C183.099 38.5198 183.691 38.9139 184.282 39.5051C186.45 42.0668 188.618 44.4315 189.406 47.9785C189.8 50.3432 191.18 52.5108 193.939 53.2991C199.655 54.8755 204.385 51.5256 204.188 46.008C204.188 44.6286 203.4 43.2492 203.203 41.8698C202.611 37.3374 202.02 33.0022 201.429 28.4699C201.232 26.3022 201.035 23.9376 200.641 21.7699C200.641 20.1935 200.246 18.42 199.852 16.8435C199.655 15.6612 198.867 14.6759 198.473 13.6906C197.487 11.72 198.078 8.96121 199.852 7.38476C201.429 6.00536 202.217 4.23184 202.809 2.26127C201.626 2.45833 200.838 2.65539 199.852 2.85244C200.049 2.06422 200.246 1.27599 200.443 0.487759C200.443 0.487759 200.246 0.290701 200.049 0.0936437C197.487 1.07893 194.728 2.06422 191.771 3.24656C186.253 0.290702 179.749 -0.694583 173.245 0.487759C166.346 1.6701 160.434 4.62596 155.112 8.76416C146.046 15.6612 139.148 24.3317 133.235 33.5934C131.264 36.7463 128.702 39.308 125.351 41.2786C119.044 44.8256 112.343 46.008 105.051 45.4168C99.5319 45.0227 94.2104 44.6285 88.8889 43.8403C84.75 43.2491 80.611 42.4609 76.6692 41.0815C70.7564 38.9139 64.8436 38.7168 58.7337 39.8992C51.0471 41.4756 44.3459 45.2197 38.4331 50.1461C36.6593 51.5255 35.0825 51.5256 33.1116 50.9344C32.1261 50.7373 31.1407 50.1461 30.1552 49.752C27.593 48.7667 25.2279 48.5697 22.6657 49.752C18.7238 51.1314 15.9645 53.6932 13.7965 57.0431C12.811 58.6196 11.4314 60.1961 10.2488 61.5755C8.86917 63.349 7.29245 64.9254 6.10989 66.896C5.12443 68.4725 4.53315 70.246 3.74478 71.8224C3.74478 71.8224 3.94187 71.8224 4.13896 71.8224C4.73024 71.6254 5.12443 71.4283 6.10989 71.0342C4.92733 73.3989 3.94187 75.1724 3.1535 77.143C1.97094 80.0988 1.77385 82.0694 2.16803 83.0547C2.56222 82.2665 3.15349 81.4782 3.54768 80.69C3.74477 81.4782 3.74477 82.2665 3.94186 83.0547C4.73023 89.1635 5.5186 95.2722 6.30697 101.184C6.89825 105.519 7.29243 110.052 6.30697 114.387C5.71569 117.146 4.92732 119.707 1.37964 120.89C4.13894 121.875 5.91279 120.693 7.88372 119.51C7.29244 120.89 6.89826 122.269 6.10989 123.451C5.32152 124.634 4.33606 125.816 3.1535 126.998C2.16803 127.984 0.985465 128.772 0 129.757C5.12442 127.984 9.65756 125.619 13.0081 121.087C12.2198 122.663 11.4314 124.24 10.4459 125.816C16.95 119.313 23.0599 112.219 24.6366 102.957C24.6366 104.337 25.0308 105.519 25.2279 107.096C27.0017 100.199 26.0163 93.6958 24.0453 86.9958C25.425 88.1782 26.4105 89.1635 27.3959 90.1487C24.8337 84.6311 23.257 79.9018 23.8483 77.7341C24.8337 78.7194 25.6221 79.5077 26.4105 80.4929C23.8483 74.5812 23.4541 68.6695 26.4105 62.3637C26.8047 63.9401 27.0017 64.9254 27.3959 66.1078C27.7901 65.1225 27.7901 63.9402 28.3814 63.1519C29.9581 61.1814 31.5349 59.6049 33.3087 57.8314C33.5058 57.6343 34.4913 57.8314 35.0825 57.8314C35.2796 57.8314 35.6738 58.6196 35.4767 59.0137C33.9 65.7137 34.6884 72.4136 37.0535 78.9165C37.8418 81.2812 39.0244 83.4488 39.8128 85.8135C42.375 94.0899 37.0535 103.352 30.9436 107.687C29.3668 108.869 27.7901 110.249 27.593 112.219C27.593 113.993 27.593 115.963 27.593 117.737C27.593 123.451 26.8046 128.969 25.6221 134.684C24.8337 138.625 23.6512 142.369 22.4686 146.113C22.0744 147.689 21.8773 149.266 23.257 150.645C25.425 152.616 25.6221 154.783 24.2424 157.148C23.6512 158.33 24.2424 159.119 24.6366 160.104C25.2279 161.089 25.2279 162.469 25.6221 163.651C25.6221 164.242 25.8192 165.03 26.2134 165.227C29.3668 167.592 35.8709 167.395 39.0244 165.03C39.4186 164.636 39.8128 163.651 39.6157 163.257C39.0244 161.68 38.0389 160.301 37.2506 158.725C37.0535 158.331 36.6593 157.739 36.8564 157.345C37.0535 155.966 36.4622 155.178 35.2796 154.586C32.5203 152.813 31.5349 150.448 31.732 147.492C31.9291 144.142 32.1262 140.792 32.7174 137.639C33.9 129.56 36.8564 122.072 42.1779 115.569C42.7692 114.978 43.3605 114.387 44.1488 113.993C49.2732 111.628 53.8064 108.475 56.9599 103.943C57.157 103.549 57.5511 103.352 57.9453 103.155C60.9017 101.775 64.0552 100.199 67.2087 98.8193C67.2087 99.4104 67.2087 100.002 67.2087 100.593C66.4203 102.563 65.829 104.731 64.8436 106.702C63.661 109.066 62.6755 111.431 63.0697 113.993C63.661 117.343 66.0261 119.313 68.7854 120.89C74.1069 124.24 79.2314 127.787 83.3703 132.319C84.1587 133.107 84.9471 134.29 84.9471 135.472C84.9471 137.837 85.9325 139.216 88.2976 140.004C89.6773 140.398 89.6773 141.187 88.8889 142.369C87.9034 143.748 86.918 145.128 85.7354 146.507C86.1296 147.098 86.5238 147.689 86.918 148.281C88.8889 150.842 91.254 153.207 94.6046 153.995C97.9552 154.783 99.9261 153.404 99.729 150.251C99.729 148.872 99.1377 147.492 99.3348 146.113C99.9261 144.142 99.3348 142.566 98.7436 140.989C98.1523 139.413 97.3639 137.837 97.1668 136.26C97.1668 134.29 95.9842 133.107 94.6046 131.728C93.0279 130.348 91.254 128.969 89.8744 127.393C85.7354 123.254 81.7936 118.919 77.6546 114.781C76.4721 113.599 75.6837 112.416 76.0779 110.84C76.4721 109.46 76.8663 107.884 77.6546 106.702C80.0197 104.14 82.779 101.775 85.5383 99.4104C86.1296 98.8193 86.918 98.4251 87.3122 97.834C88.8889 95.6663 90.4656 93.3017 92.0424 90.937C105.248 98.4251 120.03 99.6075 135.403 98.4251C135.403 99.0163 135.403 99.4104 135.6 99.8045C135.797 103.155 136.191 106.504 136.191 109.854C136.191 112.613 136.782 115.175 135.797 117.934C135.206 119.707 135.403 121.678 135.797 123.451C137.374 130.94 137.177 142.369 133.629 149.266C132.446 151.631 133.038 153.995 135.403 155.375C137.374 156.557 137.374 156.951 136.388 158.922C135.994 159.513 135.994 160.498 136.388 161.286C136.388 162.075 136.98 162.863 137.374 163.651C137.768 164.636 137.571 166.016 138.359 166.41C142.301 168.38 148.214 168.775 152.353 165.425C150.973 162.666 149.791 159.907 148.411 157.345C148.017 156.557 146.834 155.966 145.849 155.769C144.469 155.375 143.484 154.586 144.075 153.207C145.06 150.842 144.075 149.069 143.089 147.295C142.695 146.507 142.301 145.719 142.301 144.931C142.301 139.413 143.681 130.348 146.243 125.422C147.228 123.451 147.82 121.678 147.425 119.51C147.425 118.722 147.031 117.934 147.228 117.343C148.411 114.19 149.594 111.037 150.776 107.884C151.762 105.322 153.141 102.563 154.127 100.002C154.521 98.8193 154.915 98.6222 156.098 99.0163C161.419 100.593 166.741 102.169 172.062 103.549C175.413 104.534 176.595 105.716 176.004 109.066C175.413 112.613 174.23 116.16 173.048 119.707C173.048 120.101 172.653 120.496 172.259 120.693C170.288 121.678 169.5 123.057 169.697 125.028C169.697 126.013 169.106 126.21 168.317 125.816C167.332 125.422 166.149 125.225 165.164 124.831C164.178 124.437 163.784 124.831 163.39 125.422C162.602 127.59 161.813 129.56 161.222 131.728C160.828 133.501 160.828 135.275 160.434 137.245C161.813 137.245 162.799 137.245 163.784 137.048C165.558 136.654 167.135 135.866 168.909 135.472C170.288 135.078 171.274 134.487 171.471 133.107H171.274Z" fill="#007934"/>
</svg>
