<svg width="160" height="25" viewBox="0 0 160 25" fill="none" xmlns="http://www.w3.org/2000/svg">
<mask id="mask0_115_128" style="mask-type:alpha" maskUnits="userSpaceOnUse" x="5" y="0" width="155" height="25">
<mask id="mask1_115_128" style="mask-type:alpha" maskUnits="userSpaceOnUse" x="0" y="0" width="160" height="25">
<rect width="159.546" height="24.8396" fill="#D9D9D9"/>
</mask>
<g mask="url(#mask1_115_128)">
<path d="M477.689 25.5265V19.0221H491.805V15.3404H477.689V9.4497H487.508V5.768H477.689V0H475.234V5.768H439.269V0H436.815V5.768H405.637V0H403.182V5.768H380.965V9.4497H403.182V15.3404H377.528V19.0221H403.182V25.5265H98.2821V19.0221H134.001V15.3404H98.2821V9.4497H113.134V5.768H98.2821V0H95.8272V5.768H64.6498V0H62.1949V5.768H26.2305V0H23.7755V5.768H17.8837V9.4497H23.7755V15.3404H13.5877V19.0221H23.7755V25.5265H5.73193V27.9809H503.956V25.5265H477.689ZM475.234 25.5265H439.269V19.0221H475.234V25.5265ZM475.234 9.32698V15.2177H439.269V9.32698H475.234ZM405.637 9.32698H436.815V15.2177H405.637V9.32698ZM405.637 18.8994H436.815V25.4037H405.637V18.8994ZM95.8272 25.4037H64.6498V18.8994H95.8272V25.4037ZM95.8272 9.20425V15.095H64.6498V9.20425H95.8272ZM26.2305 9.20425H62.1949V15.095H26.2305V9.20425ZM26.2305 18.7767H62.1949V25.281H26.2305V18.7767Z" fill="#231F20"/>
</g>
</mask>
<g mask="url(#mask0_115_128)">
<rect x="12" y="-16" width="123" height="48" fill="#231F20"/>
</g>
</svg>
