<svg width="396" height="64" viewBox="0 0 396 64" fill="none" xmlns="http://www.w3.org/2000/svg">
<path d="M224.054 49.9824C224.203 49.3905 224.574 49.0205 225.168 48.8725C226.207 48.5765 226.578 47.9105 226.727 46.9486C227.023 44.5807 227.617 42.2868 228.731 40.141C229.25 39.105 229.028 37.9951 227.989 37.3291C227.84 37.1811 227.617 37.1071 227.469 36.9591C225.984 35.5532 224.5 34.2213 223.015 32.7414C222.273 32.0014 222.273 31.9274 222.866 31.1135C224.054 29.4116 224.425 27.4877 224.351 25.4898C224.351 24.5278 223.906 23.5659 224.277 22.5299C224.5 21.938 224.5 21.198 224.574 20.532C224.648 18.8301 224.203 17.0542 224.722 15.3523C225.019 14.3904 225.168 13.5024 225.762 12.7625C226.281 13.0584 226.727 13.5024 227.246 13.5764C227.766 13.6504 228.063 13.8724 228.36 14.2424C228.508 14.4644 228.731 14.6124 228.954 14.8344C229.77 15.7963 230.587 16.6842 230.884 18.0162C231.032 18.9041 231.552 19.7181 232.591 20.0141C234.744 20.606 236.525 19.3481 236.451 17.2762C236.451 16.7582 236.154 16.2403 236.08 15.7223C235.857 14.0204 235.634 12.3925 235.412 10.6906C235.338 9.87662 235.263 8.98867 235.115 8.17472C235.115 7.58275 234.966 6.91679 234.818 6.32482C234.744 5.88084 234.447 5.51086 234.298 5.14088C233.927 4.40092 234.15 3.36498 234.818 2.77301C235.412 2.25504 235.709 1.58908 235.931 0.849119C235.486 0.923115 235.189 0.997111 234.818 1.07111C234.892 0.775123 234.966 0.47914 235.041 0.183156C235.041 0.183156 234.966 0.10916 234.892 0.0351637C233.927 0.405143 232.888 0.775123 231.774 1.2191C229.696 0.10916 227.246 -0.26082 224.797 0.183156C222.198 0.627132 219.971 1.73707 217.967 3.29099C214.552 5.88084 211.954 9.13666 209.727 12.6145C208.985 13.7984 208.02 14.7604 206.758 15.5003C204.383 16.8322 201.859 17.2762 199.112 17.0542C197.034 16.9062 195.029 16.7582 193.025 16.4623C191.466 16.2403 189.907 15.9443 188.423 15.4263C186.196 14.6124 183.969 14.5384 181.667 14.9823C178.772 15.5743 176.248 16.9802 174.021 18.8301C173.353 19.3481 172.76 19.3481 172.017 19.1261C171.646 19.0521 171.275 18.8301 170.904 18.6821C169.939 18.3122 169.048 18.2382 168.083 18.6821C166.598 19.2001 165.559 20.1621 164.742 21.42C164.371 22.012 163.852 22.6039 163.406 23.1219C162.887 23.7879 162.293 24.3798 161.847 25.1198C161.476 25.7118 161.253 26.3777 160.957 26.9697C160.957 26.9697 161.031 26.9697 161.105 26.9697C161.328 26.8957 161.476 26.8217 161.847 26.6737C161.402 27.5617 161.031 28.2276 160.734 28.9676C160.288 30.0775 160.214 30.8175 160.363 31.1875C160.511 30.8915 160.734 30.5955 160.882 30.2995C160.957 30.5955 160.957 30.8915 161.031 31.1875C161.328 33.4813 161.625 35.7752 161.922 37.9951C162.144 39.623 162.293 41.3249 161.922 42.9528C161.699 43.9888 161.402 44.9507 160.066 45.3947C161.105 45.7647 161.773 45.3207 162.515 44.8767C162.293 45.3947 162.144 45.9126 161.847 46.3566C161.55 46.8006 161.179 47.2446 160.734 47.6885C160.363 48.0585 159.917 48.3545 159.546 48.7245C161.476 48.0585 163.184 47.1706 164.445 45.4687C164.149 46.0606 163.852 46.6526 163.48 47.2446C165.93 44.8027 168.231 42.1389 168.825 38.661C168.825 39.179 168.974 39.623 169.048 40.215C169.716 37.6251 169.345 35.1832 168.603 32.6674C169.122 33.1113 169.493 33.4813 169.864 33.8513C168.899 31.7794 168.306 30.0035 168.528 29.1896C168.899 29.5595 169.196 29.8555 169.493 30.2255C168.528 28.0056 168.38 25.7857 169.493 23.4179C169.642 24.0098 169.716 24.3798 169.864 24.8238C170.013 24.4538 170.013 24.0098 170.236 23.7139C170.829 22.9739 171.423 22.3819 172.091 21.716C172.166 21.642 172.537 21.716 172.76 21.716C172.834 21.716 172.982 22.012 172.908 22.1599C172.314 24.6758 172.611 27.1917 173.502 29.6335C173.799 30.5215 174.244 31.3354 174.541 32.2234C175.506 35.3312 173.502 38.809 171.201 40.4369C170.607 40.8809 170.013 41.3989 169.939 42.1389C169.939 42.8048 169.939 43.5448 169.939 44.2107C169.939 46.3566 169.642 48.4285 169.196 50.5744C168.899 52.0543 168.454 53.4602 168.009 54.8662C167.86 55.4581 167.786 56.0501 168.306 56.5681C169.122 57.308 169.196 58.122 168.677 59.0099C168.454 59.4539 168.677 59.7499 168.825 60.1199C169.048 60.4898 169.048 61.0078 169.196 61.4518C169.196 61.6738 169.271 61.9698 169.419 62.0438C170.607 62.9317 173.056 62.8577 174.244 61.9698C174.393 61.8218 174.541 61.4518 174.467 61.3038C174.244 60.7118 173.873 60.1939 173.576 59.6019C173.502 59.4539 173.353 59.2319 173.428 59.0839C173.502 58.5659 173.279 58.27 172.834 58.048C171.795 57.382 171.423 56.4941 171.498 55.3841C171.572 54.1262 171.646 52.8683 171.869 51.6843C172.314 48.6505 173.428 45.8386 175.432 43.3968C175.655 43.1748 175.877 42.9528 176.174 42.8048C178.104 41.9169 179.812 40.7329 180.999 39.031C181.074 38.883 181.222 38.809 181.371 38.735C182.484 38.2171 183.672 37.6251 184.859 37.1071C184.859 37.3291 184.859 37.5511 184.859 37.7731C184.563 38.5131 184.34 39.327 183.969 40.067C183.523 40.9549 183.152 41.8429 183.301 42.8048C183.523 44.0627 184.414 44.8027 185.453 45.3947C187.458 46.6526 189.388 47.9845 190.947 49.6864C191.243 49.9824 191.54 50.4264 191.54 50.8704C191.54 51.7583 191.912 52.2763 192.802 52.5723C193.322 52.7203 193.322 53.0163 193.025 53.4602C192.654 53.9782 192.283 54.4962 191.837 55.0141C191.986 55.2361 192.134 55.4581 192.283 55.6801C193.025 56.6421 193.916 57.53 195.178 57.826C196.44 58.122 197.182 57.604 197.108 56.4201C197.108 55.9021 196.885 55.3841 196.959 54.8662C197.182 54.1262 196.959 53.5342 196.737 52.9423C196.514 52.3503 196.217 51.7583 196.143 51.1664C196.143 50.4264 195.697 49.9824 195.178 49.4644C194.584 48.9465 193.916 48.4285 193.396 47.8365C191.837 46.2826 190.353 44.6547 188.794 43.1008C188.348 42.6568 188.051 42.2128 188.2 41.6209C188.348 41.1029 188.497 40.5109 188.794 40.067C189.685 39.105 190.724 38.2171 191.763 37.3291C191.986 37.1071 192.283 36.9591 192.431 36.7371C193.025 35.9232 193.619 35.0352 194.213 34.1473C199.186 36.9591 204.754 37.4031 210.544 36.9591C210.544 37.1811 210.544 37.3291 210.618 37.4771C210.692 38.735 210.841 39.993 210.841 41.2509C210.841 42.2868 211.064 43.2488 210.692 44.2847C210.47 44.9507 210.544 45.6907 210.692 46.3566C211.286 49.1685 211.212 53.4602 209.876 56.0501C209.43 56.938 209.653 57.826 210.544 58.344C211.286 58.7879 211.286 58.9359 210.915 59.6759C210.767 59.8979 210.767 60.2679 210.915 60.5638C210.915 60.8598 211.138 61.1558 211.286 61.4518C211.435 61.8218 211.36 62.3397 211.657 62.4877C213.142 63.2277 215.369 63.3757 216.928 62.1178C216.408 61.0818 215.963 60.0459 215.443 59.0839C215.295 58.7879 214.849 58.566 214.478 58.492C213.959 58.344 213.587 58.048 213.81 57.53C214.181 56.6421 213.81 55.9761 213.439 55.3101C213.29 55.0141 213.142 54.7182 213.142 54.4222C213.142 52.3503 213.662 48.9465 214.627 47.0966C214.998 46.3566 215.221 45.6907 215.072 44.8767C215.072 44.5807 214.924 44.2847 214.998 44.0627C215.443 42.8788 215.889 41.6949 216.334 40.5109C216.705 39.549 217.225 38.5131 217.596 37.5511C217.744 37.1071 217.893 37.0331 218.338 37.1811C220.343 37.7731 222.347 38.3651 224.351 38.883C225.613 39.253 226.058 39.697 225.836 40.9549C225.613 42.2868 225.168 43.6188 224.722 44.9507C224.722 45.0987 224.574 45.2467 224.425 45.3207C223.683 45.6907 223.386 46.2086 223.46 46.9486C223.46 47.3186 223.238 47.3926 222.941 47.2446C222.57 47.0966 222.124 47.0226 221.753 46.8746C221.382 46.7266 221.233 46.8746 221.085 47.0966C220.788 47.9105 220.491 48.6505 220.268 49.4644C220.12 50.1304 220.12 50.7964 219.971 51.5363C220.491 51.5363 220.862 51.5363 221.233 51.4623C221.901 51.3144 222.495 51.0184 223.163 50.8704C223.683 50.7224 224.054 50.5004 224.128 49.9824H224.054Z" fill="#007934"/>
<mask id="mask0_112_105" style="mask-type:alpha" maskUnits="userSpaceOnUse" x="0" y="19" width="160" height="25">
<rect y="19.1074" width="159.546" height="24.8396" fill="#D9D9D9"/>
</mask>
<g mask="url(#mask0_112_105)">
<path d="M477.689 44.6339V38.1295H491.805V34.4478H477.689V28.5571H487.508V24.8754H477.689V19.1074H475.234V24.8754H439.269V19.1074H436.815V24.8754H405.637V19.1074H403.182V24.8754H380.965V28.5571H403.182V34.4478H377.528V38.1295H403.182V44.6339H98.2821V38.1295H134.001V34.4478H98.2821V28.5571H113.134V24.8754H98.2821V19.1074H95.8272V24.8754H64.6498V19.1074H62.1949V24.8754H26.2305V19.1074H23.7755V24.8754H17.8837V28.5571H23.7755V34.4478H13.5877V38.1295H23.7755V44.6339H5.73193V47.0883H503.956V44.6339H477.689ZM475.234 44.6339H439.269V38.1295H475.234V44.6339ZM475.234 28.4344V34.3251H439.269V28.4344H475.234ZM405.637 28.4344H436.815V34.3251H405.637V28.4344ZM405.637 38.0068H436.815V44.5112H405.637V38.0068ZM95.8272 44.5112H64.6498V38.0068H95.8272V44.5112ZM95.8272 28.3117V34.2024H64.6498V28.3117H95.8272ZM26.2305 28.3117H62.1949V34.2024H26.2305V28.3117ZM26.2305 37.8841H62.1949V44.3884H26.2305V37.8841Z" fill="#231F20"/>
</g>
<mask id="mask1_112_105" style="mask-type:alpha" maskUnits="userSpaceOnUse" x="236" y="19" width="160" height="25">
<rect width="159.546" height="24.8396" transform="matrix(-1 0 0 1 396 19.1074)" fill="#D9D9D9"/>
</mask>
<g mask="url(#mask1_112_105)">
<path d="M-81.6885 44.6339V38.1295H-95.8043V34.4478H-81.6885V28.5571H-91.5082V24.8754H-81.6885V19.1074H-79.2336V24.8754H-43.2692V19.1074H-40.8143V24.8754H-9.63687V19.1074H-7.18195V24.8754H15.035V28.5571H-7.18195V34.4478H18.4719V38.1295H-7.18195V44.6339H297.718V38.1295H261.999V34.4478H297.718V28.5571H282.866V24.8754H297.718V19.1074H300.173V24.8754H331.35V19.1074H333.805V24.8754H369.77V19.1074H372.225V24.8754H378.116V28.5571H372.225V34.4478H382.413V38.1295H372.225V44.6339H390.268V47.0883H-107.956V44.6339H-81.6885ZM-79.2336 44.6339H-43.2692V38.1295H-79.2336V44.6339ZM-79.2336 28.4344V34.3251H-43.2692V28.4344H-79.2336ZM-9.63687 28.4344H-40.8143V34.3251H-9.63687V28.4344ZM-9.63687 38.0068H-40.8143V44.5112H-9.63687V38.0068ZM300.173 44.5112H331.35V38.0068H300.173V44.5112ZM300.173 28.3117V34.2024H331.35V28.3117H300.173ZM369.77 28.3117H333.805V34.2024H369.77V28.3117ZM369.77 37.8841H333.805V44.3884H369.77V37.8841Z" fill="#231F20"/>
</g>
</svg>
