<svg width="28" height="33" viewBox="0 0 28 33" fill="none" xmlns="http://www.w3.org/2000/svg">
<path d="M25.8307 8.08191L26.5593 5.44856L26.6203 5.22847L26.5558 5.01059L25.4312 1.20434L25.1704 0.323975L24.3354 0.709193L18.7432 3.28979L18.0519 3.60934L18.341 4.31273L20.2998 9.08557C20.3333 9.2279 20.3751 9.36418 20.4262 9.49442C21.229 11.5032 21.6527 13.8065 21.6527 16.1552C21.6527 22.6651 18.4048 27.2103 13.7537 27.2103C9.10258 27.2103 5.85461 22.6652 5.85461 16.1552C5.85461 13.9738 6.2217 11.8312 6.91631 9.9263L7.13529 9.39244L9.22049 4.31235L9.51009 3.60896L8.81852 3.28941L3.22629 0.709664L2.39243 0.324446L2.13057 1.20481L1.00571 5.01106L0.941145 5.22895L1.00214 5.44903L1.70799 7.99825C0.783177 10.5217 0.295166 13.3368 0.295166 16.1555C0.295166 25.7834 5.95555 32.7702 13.7538 32.7702C21.5523 32.7702 27.2125 25.7827 27.2125 16.1555C27.2122 13.3705 26.7336 10.5852 25.8304 8.08196L25.8307 8.08191Z" fill="#231F20"/>
</svg>
