<svg width="687" height="607" viewBox="0 0 687 607" fill="none" xmlns="http://www.w3.org/2000/svg">
<path d="M686.15 172.565C686.15 191.076 671.139 206.092 652.634 206.092C644.149 206.092 636.431 202.905 630.524 197.701L630.493 197.717L583.966 157.165C579.388 159.696 574.128 161.155 568.508 161.155C558.383 161.155 549.372 156.431 543.492 149.087C536.742 158.019 525.065 176.936 522.128 203.999C527.862 215.869 540.502 246.926 543.362 293.832C544.571 307.868 538.144 325.083 526.04 340.775C524.399 348.228 522.748 355.166 521.097 361.614L557.342 395.171C557.342 395.171 576.681 406.14 574.493 436.056C572.306 465.983 575.868 505.884 575.868 505.884C575.868 505.884 571.358 516.78 559.404 525.759C556.274 528.389 552.779 527.394 552.779 527.394C545.55 525.54 537.086 535.368 536.643 542.477C536.32 547.607 529.304 551.227 525.414 552.883L508.034 569.695L498.403 526.919C498.403 526.919 495.721 516.279 512.977 509.961L512.201 506.502C512.201 506.502 515.091 504.19 524.914 502.45C528.664 501.783 531.352 502.174 533.539 502.799C531.987 497.492 531.008 490.711 534.112 486.367C550.503 463.555 536.586 465.32 537.836 439.684C537.836 439.684 527.878 438.221 524.513 425.638C524.513 425.638 515.732 422.836 502.425 418.263C493.665 438.336 486.789 446.388 484.655 450.705C480.707 458.658 476.332 469.289 476.332 469.289C476.332 469.289 476.264 513.836 481.978 525.784C487.691 537.748 487.9 547.721 484.504 554.347C481.092 561.024 483.905 570.311 490.733 572.295C495.66 573.737 497.67 581.383 498.394 585.534L510.988 606.185H467.133C467.133 606.185 456.18 606.477 453.805 588.248H450.258C450.258 588.248 448.639 584.93 449.092 574.956C449.555 564.998 455.415 563.659 454.941 558.336C454.477 553.013 450.467 553.013 446.394 544.393C442.31 535.737 447.862 529.081 447.862 529.081C447.862 529.081 436.649 463.967 435.138 453.332C433.623 442.686 427.592 434.081 432.102 418.769C431.316 409.743 429.743 399.597 427.878 389.561C422.472 387.171 417.248 384.744 412.305 382.311C407.794 381.259 403.232 379.936 398.611 378.244C316.762 348.421 264.731 341.462 249.465 340.098C245.85 339.76 241.439 339.994 236.631 340.562C222.871 422.723 204.429 442.827 200.965 450.682C197.434 458.635 193.611 469.266 193.611 469.266C193.611 469.266 195.881 513.812 202.215 525.76C208.553 537.724 209.288 547.698 206.241 554.323C203.189 561 206.486 570.287 213.407 572.271C218.402 573.714 220.814 581.36 221.762 585.511L235.45 606.161H191.586C191.586 606.161 180.648 606.453 177.31 588.224H173.778C173.778 588.224 171.987 584.906 171.914 574.932C171.846 564.974 177.643 563.635 176.893 558.312C176.148 552.989 172.159 552.989 167.617 544.37C163.086 535.713 168.289 529.058 168.289 529.058C168.289 529.058 153.664 463.943 151.592 453.308C151.128 450.918 149.987 448.334 148.644 445.683C145.284 447.782 143.029 449.371 142.29 450.657C137.638 458.616 132.321 469.251 132.321 469.251C132.321 469.251 128.331 513.787 132.987 525.745C137.638 537.698 136.967 547.683 132.987 554.313C128.998 560.98 130.993 570.272 137.638 572.256C142.43 573.699 143.764 581.35 144.144 585.495L154.92 606.146H111.06C111.06 606.146 100.075 606.438 99.3097 588.219H95.7785C95.7785 588.219 94.4556 584.897 95.7785 574.923C97.1066 564.964 103.086 563.631 103.086 558.308C103.086 552.985 99.0962 552.985 95.7785 544.365C92.4555 535.704 98.591 529.053 98.591 529.053C98.591 529.053 93.1274 463.928 92.5494 453.299C91.9661 442.642 78.4974 428.033 92.5494 418.736C123.872 401.46 105.878 335.976 105.878 335.976C104.758 333.189 103.841 330.601 103.003 328.075C97.6849 313.403 93.0495 293.304 95.8567 271.736C40.5074 349.324 48.2581 482.963 48.2581 482.963L33.0127 464.14L37.2887 375.749L28.1377 460.067L0.00167226 431.733C-0.394154 290.373 69.5643 238.907 119.528 220.187C126.039 212.708 134.096 205.463 143.998 198.577C199.492 163.192 250.138 195.807 275.112 198.577C300.082 201.348 370.415 195.083 370.415 195.083C370.415 195.083 398.53 167.875 415.77 153.776C439.103 104.593 488.114 44.036 590.276 25.1253C590.276 25.1253 606.803 2.98 627.99 0L615.417 36.0213C615.417 36.0213 632.39 37.037 642.234 60.6253L683.182 158.844L683.166 158.86C685.073 163.052 686.151 167.698 686.151 172.578L686.15 172.565Z" fill="white"/>
</svg>
