<svg width="33" height="32" viewBox="0 0 33 32" fill="none" xmlns="http://www.w3.org/2000/svg">
<path d="M25.5084 23.5244C24.2045 21.1338 22.6832 18.8157 20.51 17.2945C20.2927 17.1496 20.1478 17.0771 19.9305 16.9323C16.8155 15.2661 12.6864 16.7874 11.0207 18.4535C9.8616 19.6126 7.10884 22.7275 6.1671 26.422C6.09466 26.7842 5.37025 29.8992 7.10884 31.348C7.61592 31.7827 8.34033 32 9.20963 32C10.2238 32 11.4553 31.7102 12.9041 31.0583C15.3671 29.9717 17.4679 29.6819 19.2065 30.2614C19.7136 30.4063 20.2207 30.6961 20.8002 30.9858C21.4522 31.348 22.1041 31.7102 22.7561 31.8551C24.06 32.1449 25.8711 31.5654 26.8128 30.5512C28.4789 28.7402 26.8852 25.9874 25.8711 24.1764C25.7262 23.959 25.5813 23.7417 25.5089 23.5244H25.5084Z" fill="#231F20"/>
<path d="M8.91902 11.2103C9.78831 12.0795 10.73 12.5866 11.6718 12.5866C11.8167 12.5866 12.034 12.5866 12.1789 12.5142C13.3379 12.2969 14.2072 11.4276 14.7867 10.0512C15.2938 8.74726 15.4387 7.15355 15.149 5.48741C14.8592 3.89371 14.1348 2.37244 13.193 1.35827C12.1789 0.271654 11.0198 -0.162992 9.9332 0.0543308C8.77414 0.271654 7.90485 1.14095 7.32532 2.51733C6.81823 3.82127 6.67335 5.41497 6.96311 7.08111C7.25288 8.74726 7.97729 10.1961 8.91902 11.2103Z" fill="#231F20"/>
<path d="M20.2196 12.0797C20.3645 12.0797 20.5094 12.1521 20.7267 12.1521C21.7409 12.1521 22.7551 11.645 23.5519 10.7757C24.4937 9.76154 25.1456 8.31272 25.4354 6.79146C25.6527 5.19775 25.5078 3.67649 24.8559 2.44499C24.2039 1.06861 23.1897 0.271761 22.0307 0.126879C20.8716 -0.018003 19.6401 0.416643 18.6984 1.50326C17.7566 2.51743 17.1047 3.96625 16.8149 5.48752C16.5976 7.08122 16.7425 8.60248 17.3944 9.83398C18.0464 11.1379 19.0606 11.9348 20.2196 12.0797Z" fill="#231F20"/>
<path d="M32.39 12.8762C32.3175 11.4998 31.6656 10.4132 30.7238 9.83371C29.7096 9.25418 28.4781 9.25418 27.2467 9.90615C26.0152 10.4857 24.9285 11.5723 24.2041 12.8762C23.4073 14.2526 23.0451 15.7014 23.19 17.0054C23.2624 18.3817 23.9144 19.4684 24.8561 20.0479C25.3632 20.3377 25.8703 20.4825 26.4498 20.4825C27.0293 20.4825 27.6813 20.3377 28.3333 20.0479C29.5648 19.4684 30.6514 18.3817 31.3758 17.0778C32.1726 15.7014 32.5348 14.2526 32.39 12.8762Z" fill="#231F20"/>
<path d="M8.99175 18.1646C9.20907 16.8607 8.99175 15.3394 8.33978 13.963C7.68781 12.5866 6.67363 11.4276 5.51457 10.7032C4.28308 9.97877 3.12402 9.83389 2.0374 10.341C1.02323 10.8481 0.298819 11.8622 0.0814962 13.2386C-0.135827 14.5426 0.0814962 16.0638 0.733466 17.4402C1.38544 18.8166 2.39961 19.9756 3.55867 20.7C4.28308 21.1347 5.00749 21.352 5.7319 21.352C6.16654 21.352 6.60119 21.2796 7.03584 21.0623C8.05001 20.5552 8.77442 19.541 8.99175 18.1646Z" fill="#231F20"/>
</svg>
