<?xml version="1.0" encoding="UTF-8"?><svg id="a" xmlns="http://www.w3.org/2000/svg" width="5.6in" height="3.7in" viewBox="0 0 405.9 263.5"><defs><style>.b{fill:#007934;}.c{fill:#ffd600;}.d{fill:#231f20;}.e{fill:#003b71;}</style></defs><path class="c" d="M192,28.6c0-.1,0-.2,.1-.3-.2,0-.4,0-.5,0-.1-.5,0-.7,.4-.9-.1,0-.2,0-.4,0-.4,0-.8,0-1.1,0-.6-.2-1.4-.4-1.9-.9,0,0-.2,0-.2,0-.2,0-.3,.2-.5,.3-.4,.3-.4,.3-.8,.4,0-.5-.2-1-.3-1.4-.2-.1-.6,.2-.5-.3,0,0-.1,0-.2,0,0-.1,0-.2,0-.4-.1,0-.2,0-.3,0,0,0,0-.2,0-.3,0,0-.2,0-.2,0-.1-.3-.3-.5-.4-.8,0-.1,0-.3,0-.4h-.3c0-.3,.2-.5,.2-.7-.2-.2-.4-.3-.5-.6,0-.1,0-.4,.1-.5,.2-.2,.2-.4,.3-.6,.1-.3,.2-.7,.3-1,0,0,0-.2,0-.2-.2-.2-.3-.5-.3-.8,0,0,0,0,0,0-.3-.3-.2-.6,.1-.9,0-.2-.5-.2-.3-.5-.3-.1-.6-.3-.6-.8,0,0,0-.1,0-.2-.2-.2-.3-.4-.2-.7,0,0,0-.2,0-.2-.2-.2-.4-.4-.4-.7,0-.2-.1-.3-.2-.5,.2,0,.4,0,.6,0,0-.4,0-.4-.5-.4-.3,0-.5,0-.7-.4,0,0,0,0-.1-.1-.1-.1-.2-.2,0-.3,.2-.1,.2-.2,0-.3,0,0,0,0-.1-.1-.1-.1-.2-.2-.4-.4,0-.1,.1-.2,.2-.3-.2-.2-.4-.4-.5-.6,0,0,0-.3,0-.3,.1-.1,0-.3,0-.4-.1-.5,.2-1,.7-1.2,1-.4,1.9-.2,2.7,.4,.6,.5,1.3,1,1.9,1.5,.1,0,.2,.1,.4,.2,.5,.2,1,.4,1.5,.6,.2,0,.4,.1,.7,.2,.7,.1,1.5,.2,2.2,.3,.7,.1,1.5,.2,2.2,.3,1.1,.2,2,0,3-.5,.4-.2,.8-.3,1.1-.6,0,0,.1-.2,.2-.3,.2-.5,.4-1,.6-1.5,0-.2,.2-.4,.2-.5,.1-.3,.2-.7,.3-1,0-.3,0-.6,.2-.9,.3-.7,.6-1.3,.8-2,.2-.5,.6-.8,.8-1.2,.5-.7,1.2-1.1,1.9-1.7,.2-.2,.6-.2,1-.3-.1,0-.3-.2-.4-.3-.2,0-.3-.2-.3-.4,0-.6,.4-1.1,.7-1.6,0,0,.1,0,.1,0,.2,.3,.4,0,.7,0V.8s0,0,.1,0c0-.2,.1-.4,.2-.7,.3,.3,.3,.7,.2,1.2,.4-.2,.4-.5,.6-.8,.3,.3,.3,.7,.2,1.2,.2-.1,.3-.2,.4-.3,.2,.3,.2,.7,.1,1,0,.2,0,.4,.2,.5,.3,.1,.3,.4,.3,.7,0,.3,0,.6,.2,.8,0,.2,.2,.3,.4,.4,.3,.2,.5,.7,.3,1.1-.4,0-.9-.1-1.3-.2,0,0,0,0,0,0,.4,.7,.1,1.2-.3,1.8-.2,.2-.3,.5-.5,.7-.3,.2-.5,.2-.7-.1,0,0-.1,0-.2,.1,0,.1,.1,.2,.2,.3-.2,.1-.2,.5-.1,.7,0,.2,.1,.5,.2,.7,.1,.5,.2,1,.3,1.5,0,.3,0,.5,.1,.8,.2,.4,.4,.7,.5,1.1,.2,.8,.5,1.7,.4,2.6,0,.7,0,1.3,0,2,0,.1,0,.3,0,.4-.2,1.1-.4,2.2-1,3.2,0,.1-.1,.3-.2,.5-.3,.5-.6,1-1,1.4-.8,.7-1.8,1.1-2.8,1.5-.5,.2-1.1,.3-1.6,.4,0,0,0,0-.1,0-.4,.2-.8,.4-1.2,.5,0,0-.2,0-.3,0-.2,0-.3,.1-.4,.2-.2,.2-.3,.4-.4,.6-.1,.2-.3,.4-.5,.4,0,0,0,0-.1,0-.3,.3-.6,.5-.9,.8,0,0,0,.2,0,.3,.2,.7,.5,1.3,.7,2,.3,.8,.7,1,1.5,.6,.3-.1,.5-.2,.8-.4,0,0,.1,0,.2,0-.2,.7-.8,.8-1.3,1.1h0c.6,.3,1.3,.4,1.9,.6,.4,0,.8,.2,1.2,.3,.2,0,.3,.2,.4,.3-.5,0-1,.1-1.5-.1-.3-.1-.6,0-1,0-.3,0-.6-.1-.9-.2,0,0-.1,0-.2,0-.2,0-.3,0-.4,.1,0,0,0,.3,0,.4,0,0,0,.1,.1,.2,.3,.3,.3,.7,0,1.1-.1-.1-.2-.3-.3-.4-.3-.4-.5-.9-.8-1.3-.2-.3-.3-.5-.4-.9,0-.2-.2-.3-.3-.4-.2-.2-.3-.3,0-.5,0-.2-.2-.4-.3-.7-.2-.5-.4-.9-.6-1.4-.1-.3-.7-.5-.9-.4-.3,.2-.7,.5-1,.8,0,0,0,.2,0,.3,.2,.8,.3,1.7,.5,2.5,0,.2,.2,.5,.3,.7,0,0,.2,.2,.3,.1,.4,0,.8,0,1.2-.3,.2-.1,.5-.1,.8-.2-.3,.5-.6,.8-1.1,1-.1,0-.2,.1-.3,.2,0,0,.2,.1,.3,.2,.2,.1,.4,.3,.7,.3,.4,.2,.8,.3,1.2,.4,.3,.1,.6,.2,.9,.4,.2,0,.3,.3,.4,.5-.5-.2-1,0-1.4-.4,0,0-.2,0-.2,0-.6,0-1.1-.2-1.6-.5-.1,0-.2,0-.4,0-.3,0-.4,0-.3,.4,0,.2,0,.3,.2,.5,.2,.4,.1,.8,0,1.2,0-.2-.2-.3-.3-.5-.2-.5-.4-1.1-.7-1.6-.2-.3-.3-.6-.3-1,0-.2-.2-.4-.3-.5-.2-.3-.2-.4,0-.6,0-.2-.1-.4-.2-.7-.2-.6-.3-1.3-.5-1.9,0-.1,0-.2-.2-.3-.1,0-.2-.2-.3-.3Z"/><g><polygon class="b" points="53 107.7 52.1 107.7 52 108.6 44.3 166.5 36.5 108.6 36.4 107.7 35.5 107.7 32.2 107.7 31.3 107.7 31.2 108.6 23.5 166.5 15.7 108.6 15.6 107.7 14.7 107.7 7.8 107.7 6.7 107.7 6.8 108.9 20.2 204.2 20.3 205.1 21.2 205.1 24.8 205.1 25.7 205.1 25.8 204.2 33.5 149.6 41 204.2 41.1 205.1 42 205.1 45.6 205.1 46.5 205.1 46.6 204.2 60 108.9 60.1 107.7 59 107.7 53 107.7"/><polygon class="b" points="97.7 107.7 96.7 107.7 96.7 108.7 96.7 164.2 85.5 164.2 85.5 108.7 85.5 107.7 84.5 107.7 77.5 107.7 76.5 107.7 76.5 108.7 76.5 164.2 73.9 164.2 72.9 164.2 72.9 165.2 72.9 170.7 72.9 171.7 73.9 171.7 76.5 171.7 76.5 204.1 76.5 205.1 77.5 205.1 84.5 205.1 85.5 205.1 85.5 204.1 85.5 171.7 96.7 171.7 96.7 204.1 96.7 205.1 97.7 205.1 104.6 205.1 105.6 205.1 105.6 204.1 105.6 108.7 105.6 107.7 104.6 107.7 97.7 107.7"/><polygon class="b" points="128.2 107.7 127.2 107.7 127.2 108.7 127.2 204.1 127.2 205.1 128.2 205.1 135.2 205.1 136.2 205.1 136.2 204.1 136.2 108.7 136.2 107.7 135.2 107.7 128.2 107.7"/><path class="b" d="M164.8,123.9c0-6.8,3.5-9.3,6.5-9.3s3.5,.4,5.1,1.4l.9,.5,.4-1,2.2-4.9,.4-.8-.8-.5c-.2,0-3.8-2.2-8.3-2.2-9.5,0-15.6,6.6-15.6,16.9s3.4,17.3,10.5,29.9c4.6,8.1,9.3,17.9,9.3,28.2s-6.3,16-9.6,16-5-.6-6.7-1.7l-1-.6-.5,1.1-2.1,4.7-.3,.7,.7,.5c2.6,1.9,6,2.9,9.9,2.9,6.5,0,18.8-5,18.8-23.7s-5.1-23.6-11.7-35.4c-4.5-8.1-8.3-15.4-8.3-22.6Z"/><polygon class="b" points="194.9 107.7 193.9 107.7 193.9 108.7 193.9 114.3 193.9 115.3 194.9 115.3 204.1 115.3 204.1 204.1 204.1 205.1 205.1 205.1 212.1 205.1 213.1 205.1 213.1 204.1 213.1 115.3 222.2 115.3 223.2 115.3 223.2 114.3 223.2 108.7 223.2 107.7 222.2 107.7 194.9 107.7"/><polygon class="b" points="248.2 197.5 248.2 108.7 248.2 107.7 247.2 107.7 240.2 107.7 239.2 107.7 239.2 108.7 239.2 204.1 239.2 205.1 240.2 205.1 262.2 205.1 263.2 205.1 263.2 204.1 263.2 198.5 263.2 197.5 262.2 197.5 248.2 197.5"/><polygon class="b" points="280.8 107.7 279.8 107.7 279.8 108.7 279.8 164.2 278 164.2 277 164.2 277 165.2 277 170.7 277 171.7 278 171.7 279.8 171.7 279.8 204.1 279.8 205.1 280.8 205.1 302.7 205.1 303.7 205.1 303.7 204.1 303.7 198.5 303.7 197.5 302.7 197.5 288.8 197.5 288.8 171.7 299.2 171.7 300.2 171.7 300.2 170.7 300.2 165.2 300.2 164.2 299.2 164.2 288.8 164.2 288.8 115.3 302.7 115.3 303.7 115.3 303.7 114.3 303.7 108.7 303.7 107.7 302.7 107.7 280.8 107.7"/><path class="b" d="M348,136.7c0-10.6-2.3-18.4-6.8-23.3-3.5-3.8-8.3-5.7-14.1-5.7h-6.3v97.3h9v-31.4c2,3.3,4,7.5,5.6,11.6,1.9,5.2,3.1,12.4,3.1,18.8v1h8.5v-1c0-7.2-1.5-15.2-4.2-22.5-1.9-4.9-4.4-9.6-7.4-13.8,4.3-3.6,12.7-13,12.7-31.2Zm-18.2,26v-47.3c6.1,.7,9.1,7.8,9.1,21.3s-2.5,16.8-4.6,20.5c-1.6,2.9-3.3,4.6-4.5,5.5Z"/><polygon class="b" points="356.2 101.1 355 100.8 355 102.1 355 121 355 122 356 122 358.6 122 359.5 122 359.6 121.2 363 103.7 363.2 102.8 362.3 102.5 356.2 101.1"/><path class="b" d="M386.6,146.5c-4.5-8.1-8.3-15.4-8.3-22.6s3.5-9.3,6.5-9.3,3.5,.4,5.1,1.4l.9,.5,.4-1,2.2-4.9,.4-.8-.8-.5c-.2,0-3.8-2.2-8.3-2.2-9.5,0-15.6,6.6-15.6,16.9s3.4,17.3,10.5,29.9c4.6,8.1,9.3,17.9,9.3,28.2s-6.3,16-9.6,16-5-.6-6.7-1.7l-1-.6-.5,1.1-2.1,4.7-.3,.7,.7,.5c2.6,1.9,6,2.9,9.9,2.9,6.5,0,18.8-5,18.8-23.7s-5.1-23.6-11.7-35.4Z"/><path class="b" d="M242.6,77.4c.2-.8,.7-1.3,1.5-1.5,1.4-.4,1.9-1.3,2.1-2.6,.4-3.2,1.2-6.3,2.7-9.2,.7-1.4,.4-2.9-1-3.8-.2-.2-.5-.3-.7-.5-2-1.9-4-3.7-6-5.7-1-1-1-1.1-.2-2.2,1.6-2.3,2.1-4.9,2-7.6,0-1.3-.6-2.6-.1-4,.3-.8,.3-1.8,.4-2.7,.1-2.3-.5-4.7,.2-7,.4-1.3,.6-2.5,1.4-3.5,.7,.4,1.3,1,2,1.1,.7,.1,1.1,.4,1.5,.9,.2,.3,.5,.5,.8,.8,1.1,1.3,2.2,2.5,2.6,4.3,.2,1.2,.9,2.3,2.3,2.7,2.9,.8,5.3-.9,5.2-3.7,0-.7-.4-1.4-.5-2.1-.3-2.3-.6-4.5-.9-6.8-.1-1.1-.2-2.3-.4-3.4,0-.8-.2-1.7-.4-2.5-.1-.6-.5-1.1-.7-1.6-.5-1-.2-2.4,.7-3.2,.8-.7,1.2-1.6,1.5-2.6-.6,.1-1,.2-1.5,.3,.1-.4,.2-.8,.3-1.2,0,0-.1-.1-.2-.2-1.3,.5-2.7,1-4.2,1.6-2.8-1.5-6.1-2-9.4-1.4-3.5,.6-6.5,2.1-9.2,4.2-4.6,3.5-8.1,7.9-11.1,12.6-1,1.6-2.3,2.9-4,3.9-3.2,1.8-6.6,2.4-10.3,2.1-2.8-.2-5.5-.4-8.2-.8-2.1-.3-4.2-.7-6.2-1.4-3-1.1-6-1.2-9.1-.6-3.9,.8-7.3,2.7-10.3,5.2-.9,.7-1.7,.7-2.7,.4-.5-.1-1-.4-1.5-.6-1.3-.5-2.5-.6-3.8,0-2,.7-3.4,2-4.5,3.7-.5,.8-1.2,1.6-1.8,2.3-.7,.9-1.5,1.7-2.1,2.7-.5,.8-.8,1.7-1.2,2.5,0,0,.1,0,.2,0,.3-.1,.5-.2,1-.4-.6,1.2-1.1,2.1-1.5,3.1-.6,1.5-.7,2.5-.5,3,.2-.4,.5-.8,.7-1.2,.1,.4,.1,.8,.2,1.2,.4,3.1,.8,6.2,1.2,9.2,.3,2.2,.5,4.5,0,6.7-.3,1.4-.7,2.7-2.5,3.3,1.4,.5,2.3-.1,3.3-.7-.3,.7-.5,1.4-.9,2-.4,.6-.9,1.2-1.5,1.8-.5,.5-1.1,.9-1.6,1.4,2.6-.9,4.9-2.1,6.6-4.4-.4,.8-.8,1.6-1.3,2.4,3.3-3.3,6.4-6.9,7.2-11.6,0,.7,.2,1.3,.3,2.1,.9-3.5,.4-6.8-.6-10.2,.7,.6,1.2,1.1,1.7,1.6-1.3-2.8-2.1-5.2-1.8-6.3,.5,.5,.9,.9,1.3,1.4-1.3-3-1.5-6,0-9.2,.2,.8,.3,1.3,.5,1.9,.2-.5,.2-1.1,.5-1.5,.8-1,1.6-1.8,2.5-2.7,.1-.1,.6,0,.9,0,.1,0,.3,.4,.2,.6-.8,3.4-.4,6.8,.8,10.1,.4,1.2,1,2.3,1.4,3.5,1.3,4.2-1.4,8.9-4.5,11.1-.8,.6-1.6,1.3-1.7,2.3,0,.9,0,1.9,0,2.8,0,2.9-.4,5.7-1,8.6-.4,2-1,3.9-1.6,5.8-.2,.8-.3,1.6,.4,2.3,1.1,1,1.2,2.1,.5,3.3-.3,.6,0,1,.2,1.5,.3,.5,.3,1.2,.5,1.8,0,.3,.1,.7,.3,.8,1.6,1.2,4.9,1.1,6.5-.1,.2-.2,.4-.7,.3-.9-.3-.8-.8-1.5-1.2-2.3-.1-.2-.3-.5-.2-.7,.1-.7-.2-1.1-.8-1.4-1.4-.9-1.9-2.1-1.8-3.6,.1-1.7,.2-3.4,.5-5,.6-4.1,2.1-7.9,4.8-11.2,.3-.3,.6-.6,1-.8,2.6-1.2,4.9-2.8,6.5-5.1,.1-.2,.3-.3,.5-.4,1.5-.7,3.1-1.5,4.7-2.2,0,.3,0,.6,0,.9-.4,1-.7,2.1-1.2,3.1-.6,1.2-1.1,2.4-.9,3.7,.3,1.7,1.5,2.7,2.9,3.5,2.7,1.7,5.3,3.5,7.4,5.8,.4,.4,.8,1,.8,1.6,0,1.2,.5,1.9,1.7,2.3,.7,.2,.7,.6,.3,1.2-.5,.7-1,1.4-1.6,2.1,.2,.3,.4,.6,.6,.9,1,1.3,2.2,2.5,3.9,2.9,1.7,.4,2.7-.3,2.6-1.9,0-.7-.3-1.4-.2-2.1,.3-1,0-1.8-.3-2.6-.3-.8-.7-1.6-.8-2.4,0-1-.6-1.6-1.3-2.3-.8-.7-1.7-1.4-2.4-2.2-2.1-2.1-4.1-4.3-6.2-6.4-.6-.6-1-1.2-.8-2,.2-.7,.4-1.5,.8-2.1,1.2-1.3,2.6-2.5,4-3.7,.3-.3,.7-.5,.9-.8,.8-1.1,1.6-2.3,2.4-3.5,6.7,3.8,14.2,4.4,22,3.8,0,.3,0,.5,.1,.7,.1,1.7,.3,3.4,.3,5.1,0,1.4,.3,2.7-.2,4.1-.3,.9-.2,1.9,0,2.8,.8,3.8,.7,9.6-1.1,13.1-.6,1.2-.3,2.4,.9,3.1,1,.6,1,.8,.5,1.8-.2,.3-.2,.8,0,1.2,0,.4,.3,.8,.5,1.2,.2,.5,.1,1.2,.5,1.4,2,1,5,1.2,7.1-.5-.7-1.4-1.3-2.8-2-4.1-.2-.4-.8-.7-1.3-.8-.7-.2-1.2-.6-.9-1.3,.5-1.2,0-2.1-.5-3-.2-.4-.4-.8-.4-1.2,0-2.8,.7-7.4,2-9.9,.5-1,.8-1.9,.6-3,0-.4-.2-.8-.1-1.1,.6-1.6,1.2-3.2,1.8-4.8,.5-1.3,1.2-2.7,1.7-4,.2-.6,.4-.7,1-.5,2.7,.8,5.4,1.6,8.1,2.3,1.7,.5,2.3,1.1,2,2.8-.3,1.8-.9,3.6-1.5,5.4,0,.2-.2,.4-.4,.5-1,.5-1.4,1.2-1.3,2.2,0,.5-.3,.6-.7,.4-.5-.2-1.1-.3-1.6-.5-.5-.2-.7,0-.9,.3-.4,1.1-.8,2.1-1.1,3.2-.2,.9-.2,1.8-.4,2.8,.7,0,1.2,0,1.7-.1,.9-.2,1.7-.6,2.6-.8,.7-.2,1.2-.5,1.3-1.2Z"/></g><g><path class="e" d="M31,253.3c0-4.3-1.1-5.8-3.6-6.5,2.3-.7,3.9-2.5,3.9-6.7v-1.5c0-5.2-2.7-7.3-8.5-7.3h-6.4v31.9h3.7v-15h2.7c3.9,0,4.6,1.2,4.6,5.4s-.1,7.6,.4,9.6h3.6c-.5-2.1-.4-7.1-.4-9.8Zm-8.1-7.8h-2.8v-11.6h2.5c4,0,5,1.8,5,4.8v1.5c0,3.4-.9,5.3-4.7,5.3Z"/><path class="e" d="M62.9,256.1c0,2.9-1,4.6-4.2,4.6s-4.2-1.9-4.2-4.6v-24.9h-3.7v24.9c0,5,2.7,7.4,7.8,7.4s8-2.6,8-7.5v-24.8h-3.8v24.9Z"/><path class="e" d="M100,243.1c0,5.2,0,9.7,.3,14h-.1c-.3-1.2-.7-3.2-1.6-5.6l-6.9-20.4h-4.4v31.9h3.5v-12c0-5.8-.1-11.1-.3-14.9h0c.2,.9,.5,2.1,1,3.7l7.7,23.2h4.3v-31.9h-3.5v11.9Z"/><path class="e" d="M163.8,243.7l-4.1,9.4-4.7-6.7c4.1-2.9,5.5-4.8,5.5-9.1s-1.8-6.4-6.2-6.4-6.3,2.8-6.3,6.9,.6,5.5,2.7,8.6c-3.2,2.5-4.8,4.5-4.8,8.9s1.8,8.3,7.2,8.3,5.2-1.3,7-4l2.6,3.7h4.1l-4.9-7,5.5-12.4h-3.6Zm-9.5-10.3c2.3,0,2.7,1.6,2.7,4s-.8,4.6-3.6,6.8c-1.7-2.5-2-3.7-2-6.7s.8-4.1,2.8-4.1Zm-.8,27c-2.7,0-3.9-1.9-3.9-5.5s.6-4.5,2.7-6.4l5.8,8.3c-1.3,2.7-2.5,3.7-4.6,3.7Z"/><path class="e" d="M223.5,253.3c0-4.3-1.1-5.8-3.6-6.5,2.2-.7,3.9-2.5,3.9-6.7v-1.5c0-5.2-2.7-7.3-8.5-7.3h-6.4v31.9h3.7v-15h2.7c3.9,0,4.6,1.2,4.6,5.4s-.1,7.6,.4,9.6h3.6c-.5-2.1-.4-7.1-.4-9.8Zm-8.1-7.8h-2.8v-11.6h2.5c4,0,5,1.8,5,4.8v1.5c0,3.4-.9,5.3-4.7,5.3Z"/><polygon class="e" points="247.2 247.4 255.9 247.4 255.9 244.7 247.2 244.7 247.2 234 256.4 234 256.4 231.2 243.5 231.2 243.5 263.1 256.5 263.1 257 260.3 247.2 260.3 247.2 247.4"/><path class="e" d="M283,244.6c-3.6-2.2-4.3-3.3-4.3-6.5s.8-4.6,3.5-4.6,3.5,1.8,3.5,4.5v1.3h3.7v-1.4c0-4.2-1.6-7.1-7-7.1-5.8,0-7.3,3.8-7.3,7.8s2,6.3,6.2,8.9c4,2.6,5,4.1,5,7.9s-1.2,5.4-4,5.4-4.2-1.7-4.2-4.8v-1.8h-3.7v1.8c0,4.2,1.8,7.5,7.8,7.5s7.8-4.1,7.8-8.6-1.7-7.1-6.9-10.4Z"/><path class="e" d="M320.3,255.3c0,3.2-.5,5.5-3.8,5.5s-4-2.2-4-5.7v-16.5c0-3,.8-5.1,3.9-5.1s3.7,2.3,3.7,5v1.4h3.8v-1.2c0-4.1-1.1-7.9-7.4-7.9s-7.7,2.7-7.7,7.9v16.2c0,4.7,1,8.6,7.6,8.6s7.6-4.3,7.6-8.5v-1.1h-3.8v1.2Z"/><path class="e" d="M355,256.1c0,2.9-1,4.6-4.2,4.6s-4.2-1.9-4.2-4.6v-24.9h-3.7v24.9c0,5,2.7,7.4,7.8,7.4s8-2.6,8-7.5v-24.8h-3.8v24.9Z"/><polygon class="e" points="383 260.3 383 247.4 391.7 247.4 391.7 244.7 383 244.7 383 234 392.2 234 392.2 231.2 379.4 231.2 379.4 263.1 392.3 263.1 392.9 260.3 383 260.3"/><path class="e" d="M310,63.5c0-.5,.3-1.1,.5-1.6,0-.2,.3-.3,.5-.4,1.1-.2,1.5-1,1.7-1.9,.2-.5,0-1.2,0-1.8,.1-.8,.3-1.7,.6-2.5,.2-.7,.6-1.2,.4-2,0-.2,.1-.6,.3-.8,.6-.4,.8-.9,.5-1.6,0-.1,0-.3,0-.4,1.1-.2,2.3-.3,3.3-.7,.7-.2,1.2-.7,1.8-1.2,.2-.1,.2-.6,0-.9,0-.2-.5-.2-.7-.2-.4,0-.8,0-1.2,.2-1,.5-2.1,.3-3.1,.3-.1,0-.3,0-.3,0-.3-.7-1.1-1-1.2-1.9-.1-1.5-.4-3.1-1.3-4.4-.5-.7-1.2-1.2-1.9-1.7-.3-.2-.8,0-1.2,0,1.2,1.3,1.9,2.7,2.1,4.4,0,.5,0,.9,0,1.4-.5,0-.9,0-1.2,0-.5,0-.9-.3-1.2-.8-1.2-1.9-2.6-3.6-4.9-4.1-1.2-.2-2.3,0-3.3,.5-.7,.4-1,1-.8,1.7,1.2-1.3,2.6-1.4,4.1-.3,1,.7,1.8,1.7,2.4,2.9,.2,.4,.1,.6-.3,1-.8,.7-1.4,.6-2.2,0-.6-.4-1.3-.6-2-.8-.8-.2-1,.1-.9,1,.1,1,.8,1.5,1.5,1.9,.7,.4,1.5,.7,2.4,1.1-.5,.3-.8,.6-1.2,.8-2,.8-4,1-6.1,.7-.4,0-.9,0-1.3,.2-.6,.3-1.2,.4-1.8,.2-.8-.2-1.5-.5-2.2-.7-.8-.3-1.5-.3-2.3,0-1.7,.9-3.4,1.6-5,2.6-1.7,1-3.6,1.4-5.6,1.4-3.2,0-6.4-.2-9.4-1.2-.9-.3-1.9-.3-2.9,0-1.8,.6-3.7,1.1-5.6,1.7-.4-.6-.9-1.3-1.4-2-1.2-1.7-3-2.4-4.9-2.7-.2,0-.4,0-.6,.1,0,0,0,.2,0,.3-.2,0-.4,0-.6,0,0,.2,0,.4-.1,.6-.2,0-.4,0-.8,0,1.3,2.1,3.7,2.3,4.9,4,0,0-.3,0-.6,0,0,0,0,0,0,.1,.4,.1,.9,.2,1.3,.4,0,0,0,0,0,.1-.4,0-.8,.1-1.2,.2,.7,.3,1.4,.5,2.1,.8-.8,1.5-.7,3-.6,4.5,.1,1.6,.2,3.2-.7,4.9,.4-.2,.6-.3,1-.4-.2,.8-.3,1.4-.4,2.2,.2,0,.4,0,.6-.1,.7,1.7,0,3.2-.3,4.8-.1,.8-.4,1.5-.5,2.3-.2,1.4-.9,2.1-2.1,2.2,0,.8-.1,1.6,0,2.4,.4,2-.8,3.6-.9,5.4,0,.7-.3,1.4-.4,2.1,0,0,0,.2,0,.2,.7,.8,0,2,.6,2.8,.2,.2,0,.7,0,1,0,1,0,1.2,1,1.4,.9,.2,1.9,.3,3,0-.3-1.1-.6-2.2-.9-3.3-.2-.6-.4-1.1-.1-1.8,0-.2,0-.4,0-.6-.3-1.9,.2-3.7,1-5.4,0,0,0,0,0-.1,.8-1.8,1.5-3.6,2.9-5,.7-.7,1.1-1.8,1.7-2.8,.2,.7-.1,1.8-.7,2.5-.8,.9-1.5,1.8-2.1,2.8-.2,.2-.2,.7-.1,1,0,.4,.1,.7,.3,1.1,.8,1.8,1,3.7,.8,5.6,0,0,0,.3,0,.3,1,.5,.5,1.8,1.1,2.5,.1,.2,.2,.4,.4,.6,.9,.8,1.2,1.8,1.1,2.9,0,.2,.2,.5,.3,.5,1.1,.1,2.2,.2,3.3,.2,.2,0,.4,0,.7-.2-.4-.8-.7-1.6-1.1-2.2-.6-.9-1.4-1.7-1.2-3,0-.3-.2-.6-.3-.8-.7-1.6-1.2-3.2-1-4.9,.2-1.7,.3-3.5,1.7-4.7,.2-.2,.4-.4,.6-.5,1-.5,1.7-1.2,2.2-2.2,.2-.5,.5-.5,1-.4,2.7,.7,5.3,1.4,8.1,1.3,1.9,0,3.8-.5,5.5-1.3,.6-.3,1.4-.3,2-.5,.4,0,.6,0,.6,.6,0,.9-.1,1.8,0,2.6,0,.6,.3,1.3,.4,1.9,.5,2.6,0,5.1-.5,7.5-.2,.7-.3,1.4,.4,1.9,.3,.2,.4,.9,.5,1.3,.1,.8,.2,1.7,.3,2.5,0,.2,.3,.6,.5,.6,.9,.2,1.8,.2,2.7,.3,.5,0,.6-.2,.4-.7-.4-1.1-.9-2.1-1.2-3.2-.5-1.8-.3-3.6,.4-5.3,.2-.4,.2-.8,.3-1.2,0,0,.2,0,.3,0,0,1.6,.2,3.3,.2,4.9,0,.3,0,.5,0,.8,0,.6,0,1,.7,1.3,.4,.2,.6,.7,.8,1.1,.2,.4,.3,.9,.5,1.4,.2,.5,.5,1.1,.8,1.3,.9,.3,1.9,.3,2.8,.4,0,0,.3-.4,.2-.5-.3-.8-.7-1.7-1.2-2.3-1.2-1.7-1.5-3.6-1.4-5.6,0-1.4,0-2.8,0-4.1,0,0,0-.2,0-.2,1-1.6,.2-3.5,.7-5.2,.2-.8,.3-1.7,1-2.3,.3-.2,.4-.6,.5-.9,.7-1.6,1.3-3.2,1.9-4.8,.5-1.5,1.4-2.7,2.5-3.8,1.4-1.5,2.8-2.9,4.1-4.4,.4-.5,.8-1,1.2-1.4,.4,.4,.8,.9,1.2,1.4,0,.8-.2,1.8-.1,2.8,0,1,.4,1.9,.6,2.9,.6-.9,.7-1.9,.8-3Z"/><path class="e" d="M147.2,92.7c0-2.1,.5-4.2,1.1-6.2,.4-1.3,.4-2.5,0-3.7-.2-.9-.5-1.8-.7-2.7,0-.2,0-.5,.2-.7,2.3-2.7,3.1-5.7,2.4-9.1,0-.1,0-.3,0-.4,0,0,0,0,0,0,.7,0,1.5,0,2.2,.2,.4,0,.7,.3,1.1,.5,.1,0,.3,.2,.5,.2,.2,0,.4-.1,.5-.2-.1-.1-.2-.3-.3-.4-.2-.1-.5-.2-.8-.3,.8-.5,1.4-1.1,1.4-1.9,0-.6,0-1.2-.2-1.7-.2-.5-.6-.9-1.2-1-.6,0-1.2,.2-1.5,.8-.6,.9-.6,1.9-.2,2.9,0,0,0,.2,.1,.3,0,0,0,0,0,.1-.6,0-1.8-.5-2-1.1-1.4-3.3-4-5.1-7.2-6.3-2.4-.9-4.9-1.4-7.5-1.7-4.9-.5-9.8-.5-14.7,.3-4.3,.7-8.4,2.2-12.3,4.1-.2,0-.3,.2-.5,.2-.4,.2-.6,0-.9-.3-.8-1.4-2.1-2.4-3.5-3.1,0,0-.1,0-.4,0,0,.6,.1,1.2,.2,1.9-.9-.7-1.8-1.3-2.8-2,.2,.8-.2,1.4-.6,1.9-.6,.8-.7,1.6-.2,2.5,0,.1,.1,.3,.2,.4,.4,.7,.4,.8-.2,1.4-.7,.7-1.2,1.4-1.1,2.4,0,.8-.4,1.4-.9,1.9-.5,.5-1.1,1-1.8,1.3-.5,.3-1.1,.3-1.6,.4-.6,0-.7,.2-.6,.8,.2,.8,.3,1.6,.5,2.4,.1,.8,.3,.9,1.1,.9,.3,0,.5,0,.8,.1,1.7,.5,3.3,.8,5.1,.8,1,0,1.8,.3,2.5,1,.7,.8,1.8,1,2.9,1.2,1.2,.2,2.4,.3,3.5,.5,.3,0,.5,.1,.5,.4,.6,2.4,1.2,4.7,1.8,7.1,0,.3,.1,.6,.2,.9,.1,.5,0,1-.2,1.5-.4,.8-.7,1.7-1,2.5-.2,.4,0,.5,.4,.5,.6,0,1.3,0,1.9,0,.5,0,.8-.2,.9-.7,.5-1.5,.7-3.1,.9-4.7,0-.1,0-.3,.2-.4,0,.1,.1,.3,.2,.4,.1,.4,.2,.8,.4,1.2,.2,.4,.2,.8,0,1.3-.3,.7-.6,1.5-.8,2.2-.2,.6,0,.7,.5,.7,.8,0,1.6,0,2.3,0,.5,0,.8-.2,.8-.7,0-.7,0-1.4,0-2.2,0-1.3,.1-2.6,0-3.9,0-1.3-.2-2.6-.3-3.9,0-.2,0-.4,0-.6,.8,.2,1.5,.4,2.2,.5,4.9,1.2,9.9,1.2,14.8,0,1.2-.3,2.3-.5,3.5-.8,1-.2,1.4,0,1.5,1.1,0,1.4,0,2.8,0,4.2,0,1.6-.8,3-1.6,4.4-.3,.5-.5,1-.8,1.5-.2,.4,0,.6,.4,.6,.8,0,1.7,0,2.5,0,.8,0,1.5-.4,1.8-1.2,.5-1.4,.8-2.8,1.2-4.2,.1-.4,.2-.9,.3-1.3,0-.2,.1-.3,.2-.5,0,0,.1,0,.2,0,0,.2,.2,.4,.2,.6,0,1,0,1.9,0,2.9,0,.2-.1,.4-.2,.6-.4,.7-.8,1.4-1.3,2.1-.3,.6-.1,.9,.6,1,.6,0,1.2,0,1.8,0,1.2,0,2-.6,2-1.9Zm5.4-26.6c.5-.4,.9-.3,1.1,.3,.2,.7,.1,1.3-.2,1.9-.2,.4-.6,.9-1.1,.9-.3,0-.6-.8-.6-1,0-1,.2-1.5,.8-2Z"/></g><g><rect class="d" x="3.9" y="217" width="399.1" height="2"/><path class="d" d="M384.5,94v-5.3h11.5v-3h-11.5v-4.8h8v-3h-8v-4.7h-2v4.7h-29.3v-4.7h-2v4.7h-25.4v-4.7h-2v4.7h-18.1v3h18.1v4.8h-20.9v3h20.9v5.3H75.4v-5.3h29.1v-3h-29.1v-4.8h12.1v-3h-12.1v-4.7h-2v4.7h-25.4v-4.7h-2v4.7H16.7v-4.7h-2v4.7h-4.8v3h4.8v4.8H6.4v3H14.7v5.3H0v2H405.9v-2h-21.4Zm-2,0h-29.3v-5.3h29.3v5.3Zm0-13.2v4.8h-29.3v-4.8h29.3Zm-56.7,0h25.4v4.8h-25.4v-4.8Zm0,7.8h25.4v5.3h-25.4v-5.3Zm-252.4,5.3h-25.4v-5.3h25.4v5.3Zm0-13.2v4.8h-25.4v-4.8h25.4Zm-56.7,0h29.3v4.8H16.7v-4.8Zm0,7.8h29.3v5.3H16.7v-5.3Z"/></g></svg>